<svg width="650" height="682.5" xmlns="http://www.w3.org/2000/svg" id="svg" style="background: rgb(255, 255, 255);" preserveAspectRatio="xMidYMid meet" buffered-rendering="static" xmlns:xlink="http://www.w3.org/1999/xlink" viewBox="9.39 4.42 633.14 677.76"><g><path d="M 260.25 4.574011589696987 C 259.5625 4.258305215363644 259 4.45 259 5 C 259 5.55 261.20108268157304 9.2625 263.8912948479401 13.25 C 266.58150701430725 17.2375 272.5841964051736 26.349999999999998 277.23060460542104 33.5 C 281.8770128056684 40.650000000000006 287.7246950407465 50.1 290.2254540167057 54.5 C 292.7262129926649 58.9 297.44190991014915 67.9 300.70478050000406 74.5 C 303.9676510898589 81.1 308.69987140154706 91.9 311.2208256370888 98.5 C 313.74177987263056 105.1 317.1719925095982 114.55 318.8435203859059 119.5 C 320.5150482622136 124.45 323.0212090050593 133 324.4127664811185 138.5 C 325.8043239571778 144 327.3912793833299 151.65 327.9393340947899 155.5 C 328.4873888062499 159.35 329.2877428350649 163.97291666666666 329.71789860326766 165.77314814814815 C 330.14805437147044 167.5733796296296 330.1625 169.03587962962962 329.75 169.02314814814815 C 329.3375 169.01041666666666 327.70959473910204 166.1875 326.13243275356007 162.75 C 324.5552707680181 159.3125 322.23591219407183 154.25 320.97830258923506 151.5 C 319.7206929843983 148.75 315.98389717331344 142 312.6743118979354 136.5 C 309.3647266225574 131 303.25126674471574 121.325 299.0888455027317 115 C 294.9264242607477 108.675 289.4911253327305 100.98990993946263 287.0104034404713 97.92202208769476 C 284.52968154821207 94.85413423592688 280.925 90.99126139848002 279 89.33786022670175 C 277.075 87.68445905492348 272.8 84.52654046197692 269.5 82.32026335348718 C 266.2 80.11398624499743 259.225 75.97627992015025 254 73.12536040938231 C 248.775 70.27444089861437 244.3875 67.9549495520983 244.25 67.97093519490213 C 244.1125 67.98692083770595 240.0625 66.16315030760379 235.25 63.918111794675085 C 230.4375 61.673073281746376 220.425 57.44471488326991 213 54.52175979806072 C 205.575 51.59880471285153 191.85 46.50931105929324 182.5 43.21177390126452 C 173.15 39.91423674323581 161.45 36.008758238561235 156.5 34.53293277976547 C 151.55 33.0571073209697 146.7125 31.658450666924203 145.75 31.424806881886582 C 144.67230805249486 31.163200621398616 144 31.57626404499559 144 32.5 C 144 33.325 146.61828579142153 37.7125 149.8184128698256 42.25 C 153.0185399482297 46.7875 159.7079968505853 56.575 164.68387265283806 64 C 169.65974845509083 71.425 175.66061398249144 80.65 178.019129380395 84.5 C 180.37764477829853 88.35 184.72889119169363 95.775 187.68856585460634 101 C 190.648240517519 106.225 193.50408919869687 111.2875 194.0348962572238 112.25 C 194.5657033157507 113.2125 198.97200423372084 121.7625 203.8266760749352 131.25 C 208.68134791614955 140.7375 213.63134791614954 150.8625 214.8266760749352 153.75 C 216.02200423372085 156.6375 216.8875 159.2256692845464 216.75 159.501487298992 C 216.6125 159.77730531343758 212.225 158.49991357826613 207 156.66283899861097 C 201.775 154.8257644189558 193.675 152.35525905874388 189 151.1728270870289 C 184.325 149.9903951153139 175.775 148.34032932327852 170 147.50601421583917 C 164.225 146.67169910839982 154.775 145.9916123042746 149 145.9947102066721 C 143.225 145.99780810906958 134.9 146.67723988476504 130.5 147.5045585971065 C 126.1 148.33187730944798 119.125 150.11199207184967 115 151.4603691802214 C 110.875 152.80874628859314 103.45 155.90387530439935 98.5 158.33843365979078 C 93.55 160.77299201518218 85.225 165.58572045564446 80 169.03338574970695 C 74.775 172.48105104376944 67.35 177.81438641501467 63.5 180.88524213025192 C 59.65 183.95609784548915 53.125 189.44119430945807 49 193.0743453835162 C 44.875 196.70749645757434 38.25706412196422 203.01455782203422 34.293475826587155 207.0900373045382 C 30.32988753121009 211.1655167870422 24.929887531210092 217.20603318908707 22.293475826587155 220.51340708686018 C 19.65706412196422 223.82078098463327 15.587499999999999 229.78328098463325 13.25 233.76340708686018 C 10.9125 237.7435331890871 9.186233946414564 241.3375 9.413853214254587 241.75 C 9.64147248209461 242.1625 12.45397248209461 242.20047225670015 15.663853214254587 241.834382792667 C 18.873733946414564 241.46829332863385 26.224999999999998 241.12615631760107 32 241.0740783237053 C 38.50967025702465 241.01537519506303 47.06037684911468 241.7661303603705 54.5 243.04958655071482 C 61.1 244.18819406946585 71.225 246.26346439601386 77 247.6612983874882 C 82.775 249.05913237896252 91.1 251.537434290694 95.5 253.16863596911367 C 99.9 254.79983764753337 108.9 258.8371363873291 115.5 262.1404109464375 C 122.1 265.4436855055459 130.9862829231029 270.47593263496 135.2472953846731 273.3231823451355 C 139.5083078462433 276.170432055311 142.6583078462433 278.76496861136036 142.2472953846731 279.0888191363564 C 141.83628292310289 279.4126696613524 138.35 280.66957062264095 134.5 281.88193238366426 C 130.65 283.0942941446876 124.35 285.2844344521018 120.5 286.74891084458466 C 116.65 288.2133872370676 107.875 292.21295602196653 101 295.63684147769345 C 94.125 299.0607269334204 84.675 304.06650089594893 80 306.76078361664577 C 75.325 309.45506633734254 69.475 312.9367816939017 67 314.4979288534438 C 64.525 316.05907601298594 57.55 320.92774559586667 51.5 325.31719459317867 C 45.45 329.7066435904907 40.275 333.4634584877458 40 333.6656721426344 C 39.725 333.86788579752294 39.95 334.4328768428995 40.5 334.92120779902666 C 41.05 335.40953875515385 51.85 336.30833428324615 64.5 336.91853119478736 C 77.15 337.5287281063286 92.225 338.50336342158664 98 339.08438745091644 C 103.775 339.6654114802462 113.675 340.82179480603315 120 341.65412817488743 C 126.325 342.4864615437417 135.325 343.80940075657657 140 344.5939930922982 C 144.675 345.3785854280199 153 346.96520345827344 158.5 348.11981093730606 C 164 349.2744184163387 171.425 351.0150952903907 175 351.9879817685328 C 178.575 352.9608682466748 183.64198495351536 354.3740713625403 186.25996656336747 355.1284331371228 C 188.87794817321958 355.8827949117053 191.0304846864763 356.725 191.0433810372713 357 C 191.0562773880663 357.275 188.23929243455095 358.5664413101497 184.78341447390383 359.86986957811047 C 181.32753651325672 361.17329784607125 170.625 366.19650441335386 161 371.03255083873853 C 151.375 375.86859726412325 141.59121183451626 380.87715595397356 139.25824852114727 382.1626812606281 C 136.92528520777824 383.4482065672826 135.01169792025328 384.95 135.00583232664735 385.5 C 134.99915724665982 386.1259032315913 145.75135359330588 386.7908732584559 163.7475838055001 387.27753480655065 C 179.56141271247506 387.70517895015354 199.475 388.4945725084813 208 389.03174271394573 C 216.525 389.5689129194102 227.1 390.4694411903737 231.5 391.0329166494202 L 239.5 392.05741748405023 L 242.5 395.9337904639308 C 244.15 398.0657956028651 246.85 400.7396820095575 248.5 401.8757602565805 C 250.15 403.01183850360354 257.575 407.028166599212 265 410.8009338023771 L 278.5 417.66051053540446 L 279.34458134677163 426.5802552677022 L 280.18916269354327 435.5 L 277.43096264103747 441 C 275.9139526121593 444.025 271.93389100611205 450.6481979456888 268.58638129426583 455.7182176570863 C 263.2704356528672 463.7695607469153 261.9303740974676 465.1510127460625 258 466.63158021403024 C 255.52499999999998 467.5639099089519 251.8125 469.3782119632631 249.75 470.6633625569439 C 247.6875 471.94851315062476 244.875 473 243.5 473 C 242.125 473 238.6375 472.5193540321935 235.75 471.93189784931894 L 230.5 470.86379569863794 L 218.75 477.43189784931894 C 212.2875 481.04435403219355 206.6625 483.9886181550727 206.25 483.9747070112726 C 205.8375 483.96079586747254 202.8 485.1058152305316 199.5 486.5191944847372 C 196.2 487.93257373894284 191.475 490.11590593588534 189 491.37104381127614 C 186.525 492.62618168666694 181.8 495.13723631774303 178.5 496.9511652136674 C 175.2 498.76509410959176 171.6 501.0567031810625 170.5 502.04362981693566 C 169.4 503.0305564528088 166.7 504.13948810473323 164.5 504.5079223767676 C 162.3 504.8763566488021 156.675 506.2924770809024 152 507.65485667032397 C 147.325 509.01723625974546 141.25 510.9619384081758 138.5 511.9764170001692 C 135.75 512.9908955921626 129.5625 515.6612157365763 124.75 517.9104617655331 C 117.13415095814258 521.4699252906307 115.79084019625552 522.4860646963468 114.38632743760895 525.75 C 113.49880752829388 527.8125 111.95668505521836 532.2 110.95938860855225 535.5 C 109.96209216188613 538.8 108.36822315642408 542.175 107.41745748530325 543 C 106.46669181418241 543.825 103.38829236648553 547.425 100.57656982375461 551 C 97.76484728102369 554.575 94.30212027982721 559.3 92.88162093220686 561.5 C 91.46112158458651 563.7 89.26435916577368 567.525 87.99992666817836 570 C 86.73549417058304 572.475 78.97653313733804 581.475 70.75779103874504 590 C 62.539048940152036 598.525 55.18133327973727 606.7375 54.40731179337888 608.25 C 53.15122941446435 610.70448560743 53.22880982735383 611.6178937299192 55.1292601681793 616.75 C 56.300353260677916 619.9125 59.05840137284942 625.2 61.258255973004864 628.5 C 63.45811057316031 631.8 67.99247937817783 637.875 71.33463109526602 642 C 74.6767828123542 646.125 77.73793656170834 650.85 78.13719498271965 652.5 C 78.53645340373096 654.15 79.56891752303275 657.4125 80.4315596922792 659.75 C 81.30941882277365 662.1287333736807 81.79639245364267 665.6511176114582 81.53756879973821 667.75 C 81.28323163959422 669.8125 80.83323163959423 673.8625 80.53756879973821 676.75 L 80 682 L 197 682 L 314 682 L 314 676.5 L 314 671 L 325 671 L 336 671 L 336 676.5 L 336 682 L 404.5 682 L 473 682 L 470.1495150079774 677.75 C 468.581748262365 675.4125 465.750986234942 670.575 463.85893272481525 667 C 461.9668792146885 663.425 459.6844959657629 658.475 458.78696994942504 656 C 457.88944393308725 653.525 456.44520596051024 648.2375 455.5775522325872 644.25 C 454.70989850466424 640.2625 454.0066514890132 634.4125 454.014781086696 631.25 C 454.0229106843788 628.0875 454.72260508587334 622.575 455.5696575344616 619 C 456.7435798294854 614.0454399704477 458.3732118177837 610.8356800318256 462.42376259612325 605.5 C 465.3464679314489 601.65 470.3842735299544 595.6240847157303 473.61888614835766 592.1090771460673 L 479.5 585.7181542921346 L 490.75 586.3590771460673 C 496.9375 586.7115847157303 502.01296457076967 586.6625 502.0288101572659 586.25 C 502.0446557437622 585.8375 500.9196557437622 584.9375 499.5288101572659 584.25 C 498.13796457076967 583.5625 496.325 583 495.5 583 C 494.51278033401707 583 494.20218984060136 582.4017562769801 494.59145162320516 581.25 C 494.916750015968 580.2875 496.154250015968 578.3318690016805 497.34145162320516 576.9041533370677 C 498.52865323044233 575.4764376724548 502.2 572.235086787783 505.5 569.70115137113 C 508.8 567.167215954477 513.75 563.6677442679945 516.5 561.9245476233909 C 519.25 560.1813509787875 523.525 557.736208736828 526 556.4908981968142 C 528.475 555.2455876568004 534.4375 552.8256903416025 539.25 551.1133486074855 C 544.0625 549.4010068733685 548.675 548 549.5 548 C 550.3367792420427 548 551.2424229392223 549.2159047229217 551.5482856265738 550.75 C 551.8498427211895 552.2625 552.1446988800686 555.975 552.2035215351943 559 C 552.2675802844506 562.2942701427866 551.4283098664008 567.106771649434 550.1107959531482 571 C 548.9009742278972 574.575 545.9061180690179 581.6625 543.4555600445277 586.75 C 541.0050020200375 591.8375 539.225 596.225 539.5 596.5 C 539.775 596.775 540.3375 596.8367312301607 540.75 596.6371805114684 C 541.1625 596.437629792776 542.6856943115723 594.0751297927759 544.1348762479386 591.3871805114684 C 545.5840581843047 588.6992312301608 547.9757397591501 583.575 549.4497241920393 580 C 550.9237086249285 576.425 552.8731853720445 571.475 553.7818947411859 569 C 554.8055197882522 566.2120107071382 555.4466305355535 561.3613137035799 555.4670467970851 556.25 L 555.5 548 L 557.5 548.0088552178513 C 558.6 548.0137255876695 562.1553910313912 548.8012255876695 565.4008689586472 549.7588552178513 C 569.4664729534898 550.9584760248055 572.1878634039178 552.5108021673019 574.1508689586472 554.75 C 576.3604550665765 557.2704719426878 576.8615833931993 558.6172929715719 576.3833630282028 560.75 C 576.0442126937143 562.2625 573.8037007704744 568.225 571.4044476432252 574 C 569.005194515976 579.775 565.8913306173456 586.3 564.4847500907131 588.5 C 563.0781695640807 590.7 560.356783001744 593.4 558.4372243966316 594.5 C 556.5176657915191 595.6 554.7340163274583 597.0625 554.4735589209408 597.75 C 554.2131015144233 598.4375 554.45 599.225 555 599.5 C 555.55 599.775 558.475 598.425 561.5 596.5 C 564.525 594.575 569.4640463138855 590.6375 572.4756584753012 587.75 C 575.4872706367169 584.8625 579.5943241940635 581.6 581.6024441582937 580.5 L 585.253571365985 578.5 L 588.1446041727338 582 C 589.7346722164457 583.925 592.5603903137708 588.425 594.4239777223451 592 C 596.2875651309193 595.575 598.9671483805948 602.325 600.3786071660682 607 C 601.7900659515416 611.675 603.63229429687 618.7625 604.4724479334645 622.75 C 605.312601570059 626.7375 606.3375 635.8958226163942 606.75 643.1018280364315 C 607.1625 650.3078334564689 607.8375 656.3828334564689 608.25 656.6018280364315 C 608.6625 656.8208226163941 609.3061641939905 655.9875 609.6803648755345 654.75 C 610.0545655570783 653.5125 610.3043983782575 648 610.2355489225993 642.5 C 610.1666994669409 637 610.555246520547 632.05 611.0989868195016 631.5 C 611.6427271184563 630.95 611.955394297277 628.3627546751513 611.7938027724368 625.7505659447809 C 611.6322112475966 623.1383772144104 611.725 621.014791590287 612 621.0314867800623 C 612.275 621.0481819698376 613.9265133342476 622.9604272946863 615.6700296316615 625.2809208352814 C 617.4135459290753 627.6014143758766 620.3338817015948 632.425 622.1596646817047 636 C 624.9546890233571 641.4728366570735 625.4481723686202 643.4481507780861 625.282480313999 648.5 C 625.1742459316507 651.8 624.1258411945931 659.45 622.9526920094265 665.5 C 621.7795428242599 671.55 620.6352624554798 677.7375 620.4098467454709 679.25 C 620.117747943587 681.2099318868759 620.4309462435222 682 621.5 682 C 622.4611065658838 682 623.0127306085811 681.0120287041203 623.0354354157294 679.25 C 623.0549248943805 677.7375 623.7139789573023 675.375 624.5 674 C 625.2860210426976 672.625 625.9450751056194 670.4875 625.9645645842706 669.25 C 625.9840540629218 668.0125 626.5625 665.8620354292303 627.25 664.4711898427341 C 627.9375 663.0803442562379 628.725 661.9366871202853 629 661.9297295406174 C 629.275 661.9227719609494 631.3 665.7668467832458 633.5 670.4721180346094 C 635.7 675.1773892859729 637.95 679.0269795884861 638.5 679.0267631513052 C 639.1094307564181 679.0265233268054 639.2523354861399 677.3613007608781 638.8658883336825 674.7631848145791 C 638.517126917208 672.4184331665606 636.154626917208 666.1125 633.6158883336825 660.75 L 629 651 L 629 641 C 629 633.7545779482726 628.5511712357953 630.1047621668114 627.3706078657674 627.75 C 626.4744421919394 625.9625 624.1478393872222 622.25 622.2003794108402 619.5 C 620.2529194344584 616.75 617.3407103680803 613.15 615.728803707778 611.5 C 613.8090203848262 609.534847450611 612.9655162112276 607.8101016995927 613.2835036596388 606.5 C 613.5504952934646 605.4 614.6826318694655 601.125 615.7993627174184 597 C 616.9160935653713 592.875 618.5025577294933 585.675 619.3248386376896 581 C 620.1471195458859 576.325 621.0910113708426 569.35 621.4223760264824 565.5 L 622.0248572185548 558.5 L 617.2624286092773 554.3213940395038 C 614.6430928741748 552.023160761231 609.3821543759216 547.7481607612309 605.5714541687147 544.8213940395038 L 598.6429083374294 539.5 L 588.281770204595 520.5 C 582.583144231536 510.05 576.9259898556145 500.45332567983223 575.7103160358803 499.17405706629387 C 574.4946422161461 497.8947884527555 572.15 496.0371188885042 570.5 495.0459024790688 C 568.85 494.0546860696334 564.9488763382693 489.4763603898012 561.8308363072653 484.871845412775 C 558.7127962762612 480.2673304357487 553.9877962762612 474.10594375424114 551.3308363072653 471.1798750094247 C 547.6147788749449 467.087438678604 545.5192567255092 465.64516915729405 542.25 464.9298750094247 C 539.9125 464.41844375424114 533.3875 463.30847090883196 527.75 462.4632686862933 C 522.1125 461.6180664637546 508.05 460.46576333870377 496.5 459.90259507506926 C 484.95 459.33942681143475 475.1625 458.68095590260276 474.75 458.43932638877595 C 474.3375 458.1976968749492 472.6588725803051 455.4125 471.0197168451225 452.25 C 469.3805611099399 449.0875 467.0180611099399 445.424009391331 465.7697168451225 444.1089097585134 L 463.5 441.7178195170267 L 457.5 442.3793330484304 C 454.2 442.74316549070244 447.3649236248813 443.5941560993714 442.3109413886251 444.27042328991706 L 433.1218827772503 445.5 L 425.8109413886251 438.4603751443706 C 421.78992362488134 434.58858147377435 416.35884820032214 429.63858147377437 413.7418848896047 427.4603751443706 L 408.9837697792094 423.5 L 408.45860950115684 417 C 408.1697713482279 413.425 407.25718186836184 405.325 406.4306328792322 399 C 405.6040838901025 392.675 404.4510768736384 385.025 403.86839506486746 382 C 403.2857132560965 378.975 401.9583179763911 372.675 400.9186277766332 368 C 399.8789375768753 363.325 399.00922486860486 358.825 398.98593286936557 358 C 398.960472363266 357.09819173028507 401.84609304833526 355.1392604144655 406.2217918899198 353.08786761005695 C 410.2248063504639 351.2111947955882 422.725 345.88000175274334 434 341.24077195929056 C 445.275 336.60154216583777 455.2875 332.62450174131214 456.25 332.4029043492336 C 457.2125 332.18130695715513 458 331.325 458 330.5 C 458 329.4905601712525 456.6100795147845 328.8152808456743 453.75 328.4351789082651 C 451.4125 328.12452730781087 446.93993599448544 327.33702730781084 443.81096887663426 326.6851789082651 C 440.6820017587831 326.0333305087193 438.25796758429027 325.275 438.4242262666502 325 C 438.5904849490101 324.725 443.1755489545247 322.5210519937619 448.6132573900159 320.1023377639153 C 454.05096582550715 317.68362353406866 460.75 314.69188644266757 463.5 313.4540331163572 C 466.25 312.2161797900469 471.425 309.97976199275007 475 308.48421578903094 C 478.575 306.98866958531187 486.45 303.3145504943524 492.5 300.31950669800995 C 499.57426666633455 296.8174011620302 503.14311515148495 294.5370462333195 502.5 293.92989688913457 C 501.95 293.41065529059557 497.225 292.2843572895714 492 291.42701244241414 C 486.775 290.5696675952569 479.23410597480876 289.56035781278575 475.2424577217972 289.1841018147005 C 471.25080946878575 288.8078458166152 467.98830946878576 288.1625 467.9924577217972 287.75 C 467.99660597480874 287.3375 471.9375 285.16060732578296 476.75 282.9124607239621 C 481.5625 280.66431412214126 496.3 274.21476096428023 509.5 268.58012037315984 C 522.7 262.94547978203946 541.2764436225858 255.2223724562565 550.7809858279684 251.41765964919773 C 560.2855280333509 247.61294684213897 567.710528033351 244.17338064967294 567.2809858279684 243.7741792214954 C 566.8514436225857 243.37497779331787 564.025 242.42419080161312 561 241.6613192399293 C 557.975 240.89844767824545 552.35 239.55222039249577 548.5 238.66970304937445 C 544.65 237.78718570625315 537 236.1641206759582 531.5 235.06289187094129 C 526 233.96166306592437 515.425 232.17499833486482 508 231.0925258019201 C 500.575 230.01005326897535 488.5348492599267 228.75890529097504 481.2441094665038 228.31219696191937 C 473.95336967308094 227.86548863286373 467.9908696730809 227.1625 467.9941094665038 226.75 C 467.99734925992675 226.3375 471.5599396871651 223.8625 475.91097708258917 221.25 C 480.2620144780132 218.6375 485.3245144780132 215.6952710509766 487.16097708258917 214.71171344661468 C 489.4082144087669 213.50815648037934 490.1730224325385 212.58952171772452 489.5 211.90224009409462 C 488.8195335417942 211.2073567297209 478.7542269752763 211.23096519429293 458 211.97612424547182 C 441.225 212.5784132682534 424.575 213.52310647440063 421 214.07544248135463 C 417.425 214.6277784883086 412.11399131047295 215.39925956921223 409.1977584677177 215.78984488336272 C 406.28152562496246 216.18043019751323 403.54281525743494 216.275 403.1117354287677 216 C 402.6806556001005 215.725 400.6791642896275 212.9125 398.66397696105 209.75 C 396.6487896324725 206.5875 392.1568611530573 201.1875 388.6819136734607 197.75 C 385.2069661938641 194.3125 379.2444661938641 189.43056649642187 375.4319136734607 186.90125888093752 C 371.6193611530573 184.37195126545316 366.025 181.1578612181671 363 179.7588365536352 C 359.975 178.3598118891033 355.475 176.53073498238973 353 175.6942212053828 C 350.525 174.8577074283759 344.78552772439184 173.57179747566195 340.24561716531525 172.83664353268512 L 331.9912343306305 171.5 L 331.97815808567697 168.5 C 331.9709661509525 166.85 331.3315177884062 161.675 330.55716172446284 157 C 329.7828056605195 152.325 328.6687096068241 146.25 328.0813927162508 143.5 C 327.49407582567744 140.75 326.50868786351026 136.7 325.8916416892125 134.5 C 325.2745955149148 132.3 322.52537294023597 123.75 319.7822581899263 115.5 C 317.0391434396166 107.25 313.7159520399383 98.1375 312.3973884128634 95.25 C 311.0788247857885 92.3625 310 89.775 310 89.5 C 310 89.225 309.05481453211473 86.8625 307.8995878491438 84.25 C 306.74436116617295 81.6375 303.76313636993086 75.45 301.27464385749477 70.5 C 298.7861513450586 65.55 295.39378156018836 59.025 293.7360443355609 56 C 292.0783071109334 52.975 287.2754653768046 45.1 283.0630627041636 38.5 C 278.8506600315226 31.9 272.27571528427814 21.695805215363645 268.45207437695365 15.824011589696987 C 264.6284334696291 9.952217964030329 260.9375 4.88971796403033 260.25 4.574011589696987 Z " class="odd" fill="#000000"></path><path d="M 291.7608395763233 222.21894746629778 C 291.9043013433011 222.373526359834 291.53087513278325 225.65 290.93100355295024 229.5 C 290.33113197311724 233.35 289.9887541637718 243.48513381808291 290.17016397662695 252.02251959573982 L 290.5 267.54503919147965 L 287.30467844596 272.5225195957398 C 285.54725159123797 275.2601338180829 283.34516439963124 279.3 282.4111513535006 281.5 C 281.47713830736996 283.7 279.87753300668794 288.0875 278.8564729075406 291.25 C 277.69818750765 294.8375239667214 277.3760827883963 297.18804139419814 278 297.5 C 278.55 297.775 279.98628420826 296.3125 281.1917426850222 294.25 C 282.3972011617843 292.1875 285.43470116178435 288.11741195532636 287.9417426850222 285.2053599007253 C 290.44878420825995 282.29330784612415 292.8375 279.93080784612414 293.25 279.9553599007253 C 293.6625 279.9799119553264 294.47934840581604 281.2375 295.06521867959117 282.75 C 295.9076665460225 284.92488829014457 295.69942194914313 286.8593549505674 294.0694597138033 292 C 292.7951819295995 296.01887211920814 292.0126578555623 301.171983871622 292.0194216965697 305.5 C 292.0254384920496 309.35 292.6495127146329 314.525 293.40625330231035 317 L 294.7821452799056 321.5 L 294.22651214209395 311.5 C 293.85053845317236 304.7334185393916 294.0986280916426 299.88329073030417 294.99377946442735 296.5 C 295.72137471750705 293.75 297.37042694154354 289.3625 298.65833996228616 286.75 C 299.9462529830288 284.1375 302.0125 281.49292884877656 303.25 280.8731752195034 C 304.4875 280.2534215902303 307.6375 279.8034215902303 310.25 279.8731752195034 C 312.8625 279.94292884877655 316.4625 280.7527173645452 318.25 281.67270525454495 C 320.0375 282.5926931445447 323.639811734037 285.63019314454465 326.2551371867488 288.42270525454495 C 328.87046263946064 291.21521736454525 331.34546263946066 293.1737278992797 331.7551371867488 292.77495088728824 C 332.16481173403696 292.3761738752968 331.15756774864025 290.35117387529675 329.5168172192005 288.27495088728824 C 327.87606668976076 286.19872789927973 325.22553763352806 283.375 323.62675264979447 282 C 322.0279676660609 280.625 318.64539991742066 278.7173946081959 316.10993543059396 277.760876907102 C 313.0641977656728 276.61185588767074 309.8882769078202 276.18771823183397 306.75 276.510876907102 L 302 277 L 303.3587462062934 274.25 C 304.10605661975484 272.7375 306.2435566197548 270.57761538281886 308.1087462062934 269.4502564062642 C 309.97393579283204 268.3228974297095 313.975 266.8310197189483 317 266.1349726045727 C 321.0655406000821 265.19949895066713 323.54324319994026 265.14581539242425 326.5 265.92913926390577 C 328.7 266.51197804091464 331.9625 266.9913557516758 333.75 266.9944230655973 L 337 267 L 337 259 L 337 251 L 333.75 249.35352824236617 C 331.9625 248.4479687756676 328.26587492601817 247.43546877566757 325.53527761337375 247.10352824236617 L 320.57055522674744 246.5 L 324.03527761337375 243.2169416769965 C 325.9408749260182 241.41125959934456 329.975 238.32579026366514 333 236.3603431532644 C 337.11058443441544 233.68955429419665 338.7526210119245 233.08699052273124 339.5 233.9750951215387 C 340.05 234.6286558144903 341.7408536565181 238.38912515016972 343.25745257004024 242.33169364527078 C 344.7740514835624 246.27426214037186 346.52746124604 252.2 347.1539187088795 255.5 C 348.16467589117616 260.82438178078525 348.0512336726238 262.2600704966166 346.1464661388392 268.25 C 344.9659097624776 271.9625 344 275.675 344 276.5 C 344 277.325 344.675 278 345.5 278 C 346.325 278 349.3625 276.86888944060166 352.25 275.4864209791149 C 355.1375 274.10395251762804 357.5 272.98100802486465 357.5 272.990988772974 C 357.5 273.0009695210834 357.39044882178376 275.5945800804817 357.25655293729733 278.75456779385917 L 357.0131058745946 284.5 L 364.00655293729733 290.25 C 367.8529488217838 293.4125 371.3375 295.8309738243972 371.75 295.62438627643814 C 372.1625 295.41779872847917 372.88604361054064 293.50529872847915 373.3578746900903 291.37438627643814 C 373.82970576963993 289.2434738243972 375.74220576963995 285.1375 377.6078746900903 282.25 C 379.4735436105406 279.3625 382.84640650238276 275.7625 385.10312556085063 274.25 L 389.20625112170126 271.5 L 391.85312556085063 273.0312428052308 C 393.3089065023828 273.8734263481077 395.72676510225824 276.79842634810774 397.2261446716849 279.5312428052308 C 398.7255242411116 282.26405926235384 400.9402501405878 287.425 402.147757781632 291 C 403.76477373678205 295.787408247506 404.34296533087854 299.8712808880686 404.34223603726656 306.5 C 404.3416914368214 311.45 403.7793171669284 317.525 403.0925154375044 320 C 402.4057137080804 322.475 400.1914333907866 327.8271993783311 398.1718925101849 331.89377639629134 C 396.1523516295832 335.9603534142516 392.7 341.31333818866483 390.5 343.7892981172097 C 388.3 346.26525804575454 385.6 348.6223838687525 384.5 349.0273555016496 C 383.4 349.4323271345467 381.7125 349.36684236013343 380.75 348.88183378073126 C 379.78515567486164 348.3956438841291 379 346.8783490359119 379 345.5 C 379 344.125 380.0125 342.1287348069649 381.25 341.06385512658875 C 382.4875 339.99897544621257 384.6530205845099 338.08647544621255 386.06226796557746 336.81385512658875 C 387.4715153466451 335.54123480696495 389.38749475933963 333.375 390.3199999937875 332 C 391.25250522823546 330.625 392.0119846437256 328.4875 392.00773202821006 327.25 C 392.0034794126945 326.0125 391.55 325 391 325 C 390.45 325 389.37029969446564 326.2375 388.6006659877014 327.75 C 387.83103228093717 329.2625 386.14353228093717 331.625 384.8506659877014 333 C 383.55779969446564 334.375 381.375 336.21092700393086 380 337.07983778651305 C 378.625 337.9487485690953 376.85908987861427 340.1987485690953 376.07575528580946 342.07983778651305 C 374.94485682425693 344.79556223116424 374.89144653728584 346.1178985599495 375.8164394833476 348.5 C 376.7237552180965 350.8365779463811 376.70700264233517 351.64154993413035 375.74068419753814 352.14008996998916 C 375.05830788889216 352.4921394534832 372.77775825622666 357.8921394534832 370.67279612494815 364.14008996998916 C 367.5812407564026 373.31644743252394 365.9474076737009 376.5520372441089 362.17279612494815 380.9732130654 C 359.60275825622665 383.98348025137 353.45 390.5092401087663 348.5 395.47490163739167 C 343.55 400.4405631660171 337.25 406.4343962457939 334.5 408.7945307035622 C 331.75 411.1546651613305 326.575 415.0811831141739 323 417.5201261543251 C 318.8830097494755 420.3288267747132 314.20864447165815 422.5128214331182 310.25 423.47728402275465 C 306.03333199993256 424.50461006026535 302.94266736003505 424.72190124674546 300.75 424.1451876978779 C 298.9625 423.6750409317107 293.45 421.5653399041729 288.5 419.4569631922383 C 283.55 417.34858648030365 272.8625 412.3332520162586 264.75 408.3117754943604 C 256.6375 404.2902989724622 248.3593864983485 399.5375 246.3541922185522 397.75 C 244.3489979387559 395.9625 241.1907040715975 391.35 239.3357614026446 387.5 C 237.48081873369173 383.65 235.97143223534326 380.1625 235.98156918409242 379.75 C 235.99170613284159 379.3375 234.6135644172455 375.9625 232.9190320383233 372.25 C 231.22449965940112 368.5375 229.24122430535425 364.15 228.51175347377466 362.5 C 227.7822826421951 360.85 225.52312076877294 355.9 223.49139375505877 351.5 C 221.45966674134462 347.1 219.3929420953915 342.4875 218.8986723196074 341.25 C 218.20659747578503 339.51725674684116 218.34483783122744 339 219.5 339 C 220.325 339 221.225 338.55 221.5 338 C 221.775 337.45 220.20548085227563 333.5125 218.01217967172363 329.25 C 215.81887849117163 324.9875 213.79387849117163 320.2625 213.51217967172363 318.75 C 213.1386771742656 316.74458681256726 213.40613826140034 316 214.5 316 C 215.3303400265672 316 217.22770995129346 313.48522839939307 218.75 310.36705559453753 C 220.2625 307.2689361715332 222.2875 304.3439361715332 223.25 303.86705559453753 C 224.2125 303.3901750175419 226.575 303 228.5 303 C 231.45238095238096 303 232.312925170068 303.54761904761904 234 306.5 C 235.1 308.425 236.45 309.775 237 309.5 C 237.55 309.225 238 308.325 238 307.5 C 238 306.675 238.45 306 239 306 C 239.55 306 241.4625 307.0846988613951 243.25 308.4104419142114 C 245.0375 309.73618496702767 247.35331538159352 310.9736849670277 248.39625640354114 311.1604419142114 C 249.4391974254888 311.3471988613951 250.4739298446393 311.05 250.69566177943113 310.5 C 250.91739371422295 309.95 248.07218329923853 306.575 244.37297196835462 303 L 237.64713318492932 296.5 L 238.27163596386015 291 C 238.61511249227212 287.975 239.440139369281 283.25 240.10502902387992 280.5 C 240.7699186784788 277.75 242.16477006285908 272.575 243.20469876694716 269 C 244.24462747103524 265.425 246.14793739607293 260.7 247.434276378142 258.5 C 248.72061536021104 256.3 253.08663275870282 251.06281917670572 257.1365372636792 246.86182039267936 C 261.18644176865564 242.660821608653 267.2 237.0774692802249 270.5 234.45437077395022 C 273.8 231.83127226767553 278.1875 228.63095309096983 280.25 227.34255038127085 C 282.3125 226.05414767157188 284.2236998670928 225.1125 284.49711081576186 225.25 C 284.7705217644309 225.3875 282.96950628869394 229.55 280.494854203013 234.5 C 278.02020211733213 239.45 274.82821673000853 247.55 273.4015533422939 252.5 C 271.9748899545792 257.45 270.45055136319127 262.4 270.0141342503207 263.5 C 269.5777171374501 264.6 268.4747376289937 270 267.5630686759731 275.5 C 266.65139972295253 281 266.15175379007746 285.6125 266.4527443806951 285.75 C 266.7537349713128 285.8875 267.3375 285.82548365144123 267.75 285.6121858920916 C 268.1625 285.39888813274194 268.86535904314815 282.361388132742 269.3119089847737 278.8621858920916 C 269.75845892639927 275.3629836514412 270.80923055109946 270.025 271.6469570396631 267 C 272.48468352822675 263.975 274.29715947034845 258.125 275.67468135548916 254 C 277.0522032406298 249.875 279.74850274773246 243.125 281.66645803793944 239 C 283.5844133281464 234.875 286.5815783428765 229.34852635983398 288.32682473733973 226.71894746629778 C 290.0720711318029 224.08936857276154 291.6173778093455 222.06436857276154 291.7608395763233 222.21894746629778 Z " class="even" fill="#ffffff"></path><path d="M 219.92688356907215 278.20913478463484 C 220.71166953206182 280.0191106530857 221.95878871379855 282.85 222.69825952848714 284.5 C 223.4377303431757 286.15 224.0331327370932 287.8375 224.02137595941497 288.25 C 224.00961918173675 288.6625 222.3125 288.9799635920185 220.25 288.95547464893014 C 218.09797884782625 288.92992278298067 215.8608084608695 289.5789799967333 215 290.47862656979777 C 214.175 291.3408490693634 213.36405856886424 291.9233854773449 213.19790793080944 291.7731519208677 C 213.0317572927546 291.62291836439044 214.1567572927546 287.7691106530857 215.69790793080944 283.20913478463484 L 218.5 274.9182695692697 L 219.92688356907215 278.20913478463484 Z " class="even" fill="#ffffff"></path><path d="M 390 275.9487479314954 C 388.625 275.93889262715123 386.2625 276.8463926271512 384.75 277.96541459816206 C 383.2375 279.08443656917296 381.12930929590226 281.9125 380.0651317686717 284.25 C 379.00095424144115 286.5875 377.6534638619224 290.3 377.0707087030744 292.5 C 376.48795354422646 294.7 376.00864424832423 298.4125 376.0055769344027 300.75 C 376.00174246121105 303.67212708414615 376.6248813721665 305.6248813721665 378 307 C 379.4166666666667 308.4166666666667 381.09375 308.9270833333333 383.75 308.75 C 386.8450643721301 308.54366237519133 387.5463441836393 308.84929900153065 387.7653553742566 310.5 C 387.97129639675353 312.0521903264549 387.5234867232084 312.43872328978404 385.7653553742566 312.22632699186295 C 384.5194099184155 312.07580683738763 382.9697590147996 312.3008068373876 382.3216866995547 312.72632699186295 C 381.6736143843097 313.15184714633835 380.8750727901978 314.85 380.5471498237504 316.5 C 380.21922685730294 318.15 379.2326169763989 319.95 378.35468342174136 320.5 C 377.0704705820276 321.3045222307491 376.928658668836 322.25993767929594 377.62922029754566 325.3875913215507 C 378.10814913389555 327.52576654840357 379.2875 329.77576654840357 380.25 330.3875913215507 C 381.51257370924344 331.19016157946174 382.48742629075656 331.19800261448694 383.75 330.4157428832419 C 384.7125 329.8194014690249 386.96754668577745 326.8944014690249 388.7612148572832 323.9157428832419 C 390.6791732659712 320.73068147000555 392.01781044536 317.16136282061115 392.0112148572832 315.25 C 392.0050466857775 313.4625 391.4375 309.88983383985 390.75 307.3107418663333 C 389.8966586202458 304.10951146168776 388.46869694537133 301.8088914642623 386.2500294901266 300.0607418663333 C 384.4625457096962 298.65233383985 383.0000457096962 296.9375 383.0000294901266 296.25 C 383.0000081288708 295.34455899890986 384.1715005962936 295.17839179021126 387.25 295.647174325644 C 390.14759119783446 296.0884088266912 391.81821383580365 295.8937245203775 392.5 295.035370926769 C 393.1987515062708 294.15565834539996 393.0481272594062 293.5347663786643 392 292.97430844957756 C 391.175 292.5331618356077 389.89829325647884 292.4709733651015 389.16287390328637 292.83611184845256 C 388.42745455009384 293.20125033180364 387.4218452986265 292.825 386.9281866778034 292 C 386.4345280569803 291.175 386.0396807375797 289.375 386.0507481902465 288 C 386.06181564291325 286.625 386.6174248943806 284.47381966688647 387.2854354157294 283.21959925974767 L 388.5 280.93919851949533 L 390.75 283.46959925974767 C 391.9875 284.86131966688646 393.225 287.125 393.5 288.5 C 393.775 289.875 394.675 291 395.5 291 C 396.43333333333334 291 397 290.05555555555554 397 288.5 C 397 287.125 396.325 284.875 395.5 283.5 C 394.675 282.125 394.1967932720792 280.4375 394.4373183823983 279.75 C 394.6778434927174 279.0625 394.34034349271735 277.93 393.6873183823983 277.23333333333335 C 393.03429327207925 276.53666666666663 391.375 275.9586032358396 390 275.9487479314954 Z " class="odd" fill="#000000"></path><path d="M 318.5 299.9596732362438 C 317.4 299.94599874720905 315.7238751931502 300.7369781599036 314.7752782070005 301.7174052644539 C 313.59647703010364 302.93576104839593 313.0425551848197 305.16176553585177 313.0252782070005 308.75 C 313.0054644800482 312.8650887995144 313.51438200065843 314.5944772954924 315.37948616799383 316.75 L 317.7589723359876 319.5 L 322.3800690280701 317 C 325.5082730469765 315.30765063612165 326.99917573538085 313.85387949110265 326.9950059256736 312.5 C 326.99161803871016 311.4 326.5413557516758 308.8125 325.9944230655973 306.75 C 325.4474903795188 304.6875 323.9875 302.3215205873055 322.75 301.49226797178994 C 321.5125 300.6630153562744 319.6 299.97334772527864 318.5 299.9596732362438 Z " class="odd" fill="#000000"></path><path d="M 238.5 311.9693543763691 C 237.4 311.95792385366354 235.375 313.1221356532353 234 314.55649170875085 C 231.834413087174 316.8155627648652 231.48677434439495 318.1232134703237 231.40112785569465 324.33220590484416 L 231.3022557113893 331.5 L 231.7275668496115 325.5 C 231.9912299978921 321.78041979738356 232.88396575445822 318.45480759286585 234.07643899391684 316.75 C 235.30312327101583 314.9962829349555 236.90571175905046 314 238.5 314 C 239.875 314 242.59583170713645 315.2375 244.54629268252546 316.75 C 246.52916946696624 318.2876370890315 248.0721768081989 318.9489259495598 248.04629268252546 318.25 C 248.02083170713647 317.5625 246.3125 315.87278085760806 244.25 314.4950685724624 C 242.1875 313.1173562873167 239.6 311.9807848990747 238.5 311.9693543763691 Z " class="odd" fill="#000000"></path><path d="M 342.25 318.0400376306552 C 340.7375 318.06205832751556 338.2625 318.73705832751557 336.75 319.5400376306552 C 335.2375 320.34301693379484 332.5375 320.97502632481365 330.75 320.9445029440304 C 328.9625 320.9139795632471 325.25 321.32171606949316 322.5 321.8505840690216 C 319.75 322.37945206855005 315.7 323.43015890442217 313.5 324.18548814873736 C 311.3 324.9408173930526 307.25 326.7269655854798 304.5 328.15470635413106 C 301.75 329.58244712278236 298.825 331.50175037007807 298 332.41982468145477 C 297.175 333.3378989928315 296.95 334.0561397352713 297.5 334.01591522020976 C 298.05 333.9756907051483 300.6375 332.60565429716684 303.25 330.9713898691399 C 305.8625 329.33712544111296 308.3375 328.25003005137665 308.75 328.5556223363926 C 309.1625 328.8612146214086 308.825 329.52932387287586 308 330.0403095618756 C 307.175 330.5512952508752 306.8375 330.9762651994985 307.25 330.98468722548296 C 307.6625 330.99310925146733 309.6875 330.09843841800324 311.75 328.996529817785 C 313.8125 327.8946212175668 316.175 326.97458480958534 317 326.95200446671515 L 318.5 326.9109492978602 L 317 328.5 C 316.175 329.3739778861769 315.8375 330.0690142941583 316.25 330.04452535106986 C 316.6625 330.0200364079815 317.7875 329.5614721395097 318.75 329.0254936433549 C 319.7125 328.48951514720005 322.975 326.9037931956841 326 325.5016670844305 C 329.025 324.0995409731769 334.2 322.4987126868872 337.5 321.9442708926756 C 340.8 321.389829098464 343.8375 320.72555104997997 344.25 320.4680974516 C 344.6625 320.21064385322 345 319.55 345 319 C 345 318.45 343.7625 318.01801693379485 342.25 318.0400376306552 Z " class="odd" fill="#000000"></path><path d="M 254.5 332.30786177834625 C 253.4 331.73717809176566 251.9375 331.4344476834912 251.25 331.63512753773625 C 250.53614665489906 331.843499879914 250.00160331887952 333.60843996469714 250.00373806043757 335.75 C 250.00579399367822 337.8125 250.9057939936782 340.9625 252.00373806043757 342.75 C 253.1016821271969 344.5375 254.5625 346.01910182098055 255.25 346.0424484910679 C 255.9375 346.0657951611552 257.57711048359505 345.2782951611552 258.8935788524334 344.2924484910679 L 261.2871577048668 342.5 L 260.1435788524334 339.25 C 259.51461048359505 337.4625 258.4375 335.40273040827446 257.75 334.67273424061 C 257.0625 333.9427380729455 255.60000000000002 332.8785454649268 254.5 332.30786177834625 Z " class="odd" fill="#000000"></path><path d="M 232.81483826838866 333.25 C 231.95572496950317 332.7063316069208 231.79552627548367 333.32532642768314 232.23252796553362 335.5 C 232.56409625134958 337.15 233.2476236321915 340.075 233.7514777007379 342 C 234.25533176928428 343.925 235.7841391611395 347.75 237.14882746041616 350.5 C 239.11152842910957 354.45506260789944 240.19120204722242 355.552246869605 242.3150394568232 355.75 C 243.79176775557045 355.8875 245 355.55 245 355 C 245 354.45 245.7875 353.82720060771385 246.75 353.61600135047524 L 248.5 353.23200270095043 L 246.75 353.11600135047524 C 245.7875 353.05220060771387 244.775 353.45 244.5 354 C 244.225 354.55 243.325 355 242.5 355 C 241.675 355 240.23531359155052 353.5375 239.3006968701123 351.75 C 238.36608014867403 349.9625 236.80577078123284 346.25 235.83334272024294 343.5 C 234.86091465925304 340.75 234.05060106770253 337.4875 234.03264585013068 336.25 C 234.0146906325588 335.0125 233.4666772207749 333.6625 232.81483826838866 333.25 Z " class="odd" fill="#000000"></path><path d="M 313.25 341.03040868590074 C 312.2875 341.04713346314617 310.7125 341.49713346314616 309.75 342.03040868590074 C 308.7875 342.5636839086553 308 343.45 308 344 C 308 344.55 308.9 345 310 345 C 311.1 345 312.8784279370854 345.5625 313.95206208241206 346.25 C 315.0256962277387 346.9375 316.26319622773866 347.1572066152641 316.70206208241206 346.73823692280905 C 317.14092793708545 346.31926723035406 316.9375 344.8567672303541 316.25 343.48823692280905 C 315.5625 342.1197066152641 314.2125 341.0136839086553 313.25 341.03040868590074 Z " class="odd" fill="#000000"></path><path d="M 265.74420904235524 346.5 C 265.5270720129189 344.3 265.27746801901753 343.625 265.1895335003523 345 C 265.10159898168706 346.375 264.0908866947845 350.2 262.9435061961244 353.5 C 261.79612569746433 356.8 260.6221465463827 360.4 260.33466363816524 361.5 C 260.04718072994774 362.6 260.4167747670898 363.99548992324264 261.1559837207031 364.601088718317 C 261.8951926743164 365.2066875133914 265.2 366.22287353278335 268.5 366.85927987252137 C 271.8 367.4956862122594 275.2875 368.01269628901673 276.25 368.0081911542044 C 277.25264449622796 368.0034981166725 279.2578839637217 365.9714636326187 280.94544821761883 363.25 C 282.5654447373092 360.6375 283.6904447373092 357.9375 283.44544821761883 357.25 C 283.2004516979285 356.5625 281.7625 356.0025096204812 280.25 356.0055769344027 C 278.7375 356.00864424832423 275.925 356.43862789537525 274 356.96109615007174 C 272.075 357.4835644047682 268.7 359.07651307943996 266.5 360.5009820937868 C 264.3 361.9254511081336 262.3974787771371 362.95796746108255 262.2721750603047 362.79546287811775 C 262.1468713434723 362.632958295153 262.9656471627717 359.8 264.09167688097 356.5 C 265.3150764891213 352.9146428449872 265.9801223157213 348.89023810334186 265.74420904235524 346.5 Z " class="odd" fill="#000000"></path><path d="M 309.75 349.9580104644331 C 309.6125 349.3849162198713 308.7643133443127 350.17241621987125 307.8651407651394 351.7080104644331 C 306.9659681859661 353.2436047089949 303.5756551114504 356.975 300.3311117106601 360 C 297.0865683098698 363.025 290.91057466935564 367.3 286.60668139840647 369.5 C 282.3027881274573 371.7 278.493101201973 373.92056540204277 278.1407104528858 374.43458978231723 C 277.7515233816198 375.00228812183536 278.48142374799306 375.0448521395177 280 374.5430139410188 C 281.375 374.0886228480301 285.875 371.956862626926 290 369.8057690052319 C 294.125 367.6546753835378 299.43980565176315 364.00588451212207 301.8106792261403 361.69734484653037 C 304.1815528005174 359.3888051809387 306.9940528005174 356.0375 308.0606792261403 354.25 C 309.12730565176315 352.4625 309.8875 350.53110470899486 309.75 349.9580104644331 Z " class="odd" fill="#000000"></path><path d="M 257 355.02572363561967 C 254.7902264948659 354.9914079835018 251.84113736374388 356.02677545868283 249 357.83436706183477 C 246.525 359.40901434038295 243.6 361.6809995025999 242.5 362.88322297787226 L 240.5 365.069083842004 L 245 363.27873479425716 C 247.475 362.29404281799634 250.625 360.752606479129 252 359.85332070788525 C 253.375 358.95403493664145 255.85000000000002 357.5121650774715 257.5 356.64916546528525 L 260.5 355.0800752613104 L 257 355.02572363561967 Z " class="odd" fill="#000000"></path><path d="M 373.75 375.97428580390675 C 374.7125 375.9601429960555 376.45613943248225 376.97264299605547 377.62475429440497 378.22428580390675 C 378.7933691563276 379.47592861175804 380.43463054705495 382.75 381.27200182935445 385.5 C 382.10937311165395 388.25 383.29080677719435 392.525 383.8974099749997 395 C 384.504013172805 397.475 385.93496846701476 403.775 387.07731062879907 409 C 388.21965279058344 414.225 389.82156709156243 421.875 390.6371201865303 426 C 391.4526732814981 430.125 392.7601000107239 437.325 393.5425129181431 442 C 394.32492582556233 446.675 394.97293842656075 452.6375 394.98254092036177 455.25 C 394.99407893246996 458.38908628917187 395.42392466074426 459.9905864854253 396.25 459.97224296129014 C 396.9375 459.95697658999967 399.75 456.35950553395276 402.5 451.97786283674145 C 405.25 447.59622013953015 407.95 444.0019221677163 408.5 443.99053401048855 C 409.05 443.97914585326083 412.2 446.134486780879 415.5 448.7801805163068 C 418.8 451.42587425173457 421.6179833060104 454.24516289096783 421.7621851244676 455.0452663812696 C 421.9336218391687 455.9964826368328 418.9915728400837 457.9342396441743 413.2621851244676 460.64372329599985 C 408.44298330601043 462.9227711087998 398.74429752533 467.64777110879976 391.7095500562889 471.14372329599985 L 378.9191001125777 477.5 L 374.2095500562889 476.1457375379035 C 371.61929752533 475.40089318375044 366.35 474.1426354698417 362.5 473.349609284773 C 357.56968087705263 472.3340580730217 354.83474543237594 471.18221043241954 353.25 469.4538717468695 C 352.0125 468.1042422860913 350.55538034813054 465.3125 350.01195632917893 463.25 C 349.39656984812416 460.9143751970621 349.3535559517877 456.8598329654841 349.8979115470046 452.5 C 350.37861093576026 448.65 351.61073058762975 443.13886415438185 352.63595521782565 440.25303145418184 C 353.6611798480215 437.3671987539818 354.1316094938433 434.66719875398184 353.68135443076295 434.25303145418184 C 353.2310993676826 433.83886415438184 352.00360549819754 434.625 350.95359027635175 436 C 349.903575054506 437.375 349.0344655606627 438.8375 349.02223584558885 439.25 C 349.01000613051497 439.6625 347.37400420099374 443.4875 345.3866760022083 447.75 C 343.3993478034228 452.0125 340.92434780342285 457.6375 339.8866760022083 460.25 C 338.8490042009937 462.8625 338.2528950102577 466.0125 338.5619889116837 467.25 C 339.04483466413507 469.18313946312696 338.6575606746236 469.57041345263843 335.8119889116837 470 C 333.99039501025766 470.275 328.5625 470.3875 323.75 470.25 C 318.9375 470.1125 315.00603651360393 469.6625 315.01341447467536 469.25 C 315.0207924357468 468.8375 315.9247871913507 467.375 317.0222917093506 466 C 318.1197962273505 464.625 321.56704761083785 459.9 324.6828503393225 455.5 C 327.79865306780715 451.1 332.61558493138847 443.9 335.3871433695032 439.5 C 338.15870180761794 435.1 340.76574632025915 431.275 341.180575619817 431 C 341.59540491937474 430.725 343.7832792919176 427.35 346.0425186699123 423.5 C 348.3017580479069 419.65 353.34704837485856 409.975 357.25427495202706 402 C 361.16150152919556 394.025 364.8402005374675 386.4414172129011 365.4291616370758 385.14759380644693 C 366.0181227366841 383.85377039999275 367.7375 381.2662703999928 369.25 379.39759380644693 C 370.7625 377.5289172129011 372.7875 375.988428611758 373.75 375.97428580390675 Z " class="even" fill="#ffffff"></path><path d="M 300 377 C 298.1304437513129 377 295.3985380189734 378.24422667039255 292.75 380.3019599664668 C 290.4125 382.1180379480236 288.3768126918322 384.2555379480236 288.2262504262937 385.0519599664668 C 288.02486328630073 386.1172278936468 288.99352161572773 386.5 291.8907181775867 386.5 C 294.05673770633626 386.5 296.2049250145041 386.1228160935418 296.66446775129293 385.6618135412041 C 297.1240104880818 385.2008109888663 298.9625 384.1883109888663 300.75 383.4118135412041 C 302.8852563582389 382.4842492825875 303.8285009781906 381.4855029345718 303.5 380.5 C 303.225 379.675 303 378.55 303 378 C 303 377.45 301.65 377 300 377 Z " class="odd" fill="#000000"></path><path d="M 283 420 C 283.55 420 287.9375 421.8103462221528 292.75 424.02299160478407 C 298.95472461901795 426.8757407536191 302.8089987673622 428.03579033826054 306 428.01094274808884 C 308.475 427.9916704942752 311.85 427.46447156956094 313.5 426.83938958205715 C 315.9058775459529 425.9279527831996 318.13633999463497 426.0788695621475 324.762640050826 427.60143843875244 C 329.71435303727833 428.73922634680355 333.02021509989504 430.0008881913056 333.012640050826 430.75 C 333.0056880228717 431.4375 331.8145123637104 435.2625 330.3655830304675 439.25 C 328.9166536972246 443.2375 326.8684424814617 447.625 325.81400255099436 449 C 324.75956262052705 450.375 321.08133024970135 455.775 317.6401528380484 461 C 312.31486171488785 469.0857923873062 310.9455485663952 470.54082043044116 308.4417333175215 470.77421298380114 C 306.8237799928847 470.9250301248918 302.125 471.7462215678026 298 472.5990828569362 C 293.875 473.4519441460699 288.025 475.056959166078 285 476.16578290139876 C 281.975 477.2746066367195 278.2625 478.81591519380873 276.75 479.5909130282637 C 275.2375 480.36591086271864 273.7587902772242 480.8875 273.46397839383155 480.75 C 273.16916651043897 480.6125 273.73166651043897 478.138864154382 274.71397839383155 475.2530314541822 C 275.6962902772242 472.3671987539824 276.1825522544332 469.6671987539824 275.79456056540704 469.2530314541822 C 275.4065688763809 468.838864154382 274.2223375107875 470.525 273.16293530853284 473 C 272.1035331062782 475.475 270.620980851845 478.9803576200651 269.8683747431258 480.7896836001446 C 269.1157686344066 482.59900958022416 268.05 484.07112876196095 267.5 484.0610595595596 C 266.95 484.0509903571583 264.925 483.2456327370932 263 482.27137595941497 C 260.6196614815057 481.06666898029204 257.58058031741876 480.56190998839634 253.5 480.69352720707667 C 250.2 480.79996717096884 245.475 481.33641747325237 243 481.8856389899289 C 240.525 482.4348605066055 237.6 483.2195271256461 236.5 483.62934258779694 L 234.5 484.37446160988935 L 236 482.5468097917005 C 236.825 481.5416012916966 239.975 479.0609353298262 243 477.0342187653217 C 246.025 475.0075022008173 250.68156797040234 472.25819165677717 253.34792882311632 470.92463977856596 C 257.1592059484832 469.0184702652597 258.33529259200714 468.78461425191915 258.8479288231163 469.831006005531 C 259.36111058626926 470.8785112977446 259.9075213506668 470.77201263728045 261.41326984250736 469.331006005531 C 262.46556825588647 468.32395270248895 266.13417178225853 463.225 269.56572212333424 458 C 272.99727246440995 452.775 276.4113010352816 447.2495354292303 277.1524522808269 445.72118984273413 C 277.8936035263721 444.1928442562379 278.95 442.95013198276024 279.5 442.95960701278386 C 280.1001953730874 442.96994677492944 280.30009768654367 445.0128282866132 280 448.0693065364222 C 279.725 450.8701662443996 279.8375 453.3503785178772 280.25 453.5808893663724 C 280.6625 453.8114002148676 281.0707388092026 450.9625 281.15719735378366 447.25 C 281.24365589836464 443.5375 281.189010805541 436.9 281.03576381417554 432.5 C 280.88251682281015 428.1 281.0367780136075 423.4875 281.37856646039194 422.25 C 281.7203549071764 421.0125 282.45 420 283 420 Z " class="even" fill="#ffffff"></path><path d="M 316.25 429.01531277451704 C 315.8375 429.0237348005015 315.05 429.36123480050145 314.5 429.76531277451704 C 313.95 430.1693907485327 312.94994058866763 431.4 312.2776457525947 432.5 C 311.60535091652173 433.6 310.25535091652176 436.0466617301335 309.2776457525947 437.9370260669633 C 307.9521253521884 440.49988099002 307.8179242486365 441.45365373592944 308.75 441.6870260669633 C 309.4375 441.8591617301335 310 442.675 310 443.5 C 310 444.325 310.5625 444.84275366274846 311.25 444.65056369499655 C 311.9375 444.4583737272447 313.47608678077665 442.54587372724467 314.6690817350592 440.40056369499655 C 315.8620766893418 438.2552536627485 316.8745766893418 434.8125 316.9190817350592 432.75 C 316.96358678077667 430.6875 316.6625 429.00689074853267 316.25 429.01531277451704 Z " class="odd" fill="#000000"></path><path d="M 294.4591895414212 433 C 294.176079738084 432.725 293.96377574250533 433.625 293.98740288457975 435 C 294.0110300266541 436.375 294.6418604489569 439.525 295.38924826747484 442 C 296.13663608599273 444.475 297.36730478793186 446.69907108184805 298.1240676051173 446.94238018188446 C 299.15240725092235 447.2730047687044 299.28220949965726 446.8940696367491 298.6378847645283 445.44238018188446 C 298.1637213850189 444.374071081848 297.14535667865846 441.25 296.3748520837273 438.5 C 295.6043474887962 435.75 294.74229934475846 433.275 294.4591895414212 433 Z " class="odd" fill="#000000"></path><path d="M 324 473.1216724973847 C 333.8502421647392 473.0709094854182 344.73166407698415 473.6433126028013 351 474.5419725550409 C 356.775 475.36990540483094 364.2 476.74653237092406 367.5 477.60114359080336 C 370.8 478.45575481068266 373.95 479.55388493402535 374.5 480.0414327537871 C 375.1254294072753 480.59584501548153 374.5635735181883 481.12919150560685 373 481.4653205348477 C 371.625 481.76091099466925 364.65 483.35941296059144 357.5 485.0175471257858 C 350.35 486.6756812909802 341.575 488.6694706491998 338 489.4481901440515 C 334.425 490.2269096389033 312.6 495.68399551508435 289.5 501.57504764667607 C 266.4 507.4660997782678 245.925 512.5180282186957 244 512.8015552920714 L 240.5 513.3170590618454 L 244 508.9850074528219 C 245.925 506.602379067859 250.875 501.7221538036882 255 498.1400624213313 C 259.125 494.5579710389744 265.2 489.88016684426333 268.5 487.7449419886401 C 271.8 485.6097171330169 277.2 482.6175433414223 280.5 481.0956668962077 C 283.8 479.5737904509931 289.425 477.5976036609111 293 476.70414069602543 C 296.575 475.8106777311397 301.3 474.6582470991156 303.5 474.1431837359718 C 305.7 473.62812037282794 314.925 473.1684403154637 324 473.1216724973847 Z " class="even" fill="#ffffff"></path><path d="M 251.75 483.09026659776015 C 255.43722438645062 483.03701328567325 259.53766536812964 483.6548081261688 261.75 484.59692123138586 L 265.5 486.1938424627718 L 262 487.6880145863403 C 260.075 488.509809254303 256.0379883662754 490.3786947001793 253.02886303616754 491.8410933549544 C 250.01973770605971 493.3034920097295 245.25988326655636 496.75 242.45140872616008 499.5 C 239.64293418576383 502.25 235.57994581948844 507.09194369162185 233.42254568999255 510.2598748702708 C 229.96599419982235 515.3354828145765 228.96540485059217 516.1299748394839 225 516.9475788571915 C 222.525 517.4578848713489 216.675 518.3732293935844 212 518.9816777954925 C 207.325 519.5901261974005 202.2625 520.2931594032863 200.75 520.5439738085718 C 199.2375 520.7947882138573 196.65 520.325 195 519.5 C 193.35 518.675 191.99778085760806 517.2125 191.99506857246237 516.25 C 191.99235628731668 515.2875 193.20607610360622 512.7 194.69222371977247 510.5 C 196.17837133593875 508.3 199.21809047833068 504.76991581511334 201.44715514731013 502.65536847802963 C 203.67621981628955 500.5408211409459 206.85 497.73380691625687 208.5 496.4175590898317 C 210.15 495.10131126340656 216.225 492.4001462913013 222 490.4149702629312 C 227.775 488.42979423456103 235.425 485.98992842824214 239 484.99304624888924 C 242.575 483.99616406953635 248.3125 483.1399132265282 251.75 483.09026659776015 Z " class="even" fill="#ffffff"></path><path d="M 522.5 566 C 521.675 566 520.9938894406017 566.5625 520.9864209791149 567.25 C 520.9789525176279 567.9375 522.0275997201109 570.75 523.3167480957434 573.5 C 524.6058964713759 576.25 526.4722516493237 581.2 527.4642040467384 584.5 C 528.456156444153 587.8 529.8377842011425 591.175 530.5344879511595 592 C 531.2311917011764 592.825 532.2959470826271 595.1875 532.9006110210497 597.25 C 533.6141117362455 599.6837406806998 533.6489975148532 601 533 601 C 532.45 601 531.775 600.55 531.5 600 C 531.225 599.45 527.9625 597.206608908957 524.25 595.0146864643489 C 520.5375 592.8227640197408 516.9375 591.0227640197409 516.25 591.0146864643489 C 515.5625 591.006608908957 515.0268997157242 591.5625 515.0597771460536 592.25 C 515.0926545763832 592.9375 518.2982068938454 595.525 522.183226740414 598 C 526.0682465869826 600.475 532.4961171175337 605.65 536.4673834749719 609.5 C 540.4386498324101 613.35 545.0628189964667 618.75 546.7433149506534 621.5 C 548.42381090484 624.25 551.8249675990268 630.55 554.3014409377352 635.5 C 556.7779142764434 640.45 560.234472304886 648.1 561.9826810009409 652.5 C 563.7308896969959 656.9 565.8538341026504 662.3 566.7003352357287 664.5 C 567.546836368807 666.7 568.6147910182978 669.4 569.0735677901525 670.5 C 569.5323445620072 671.6 570.4909732158907 674.476740037051 571.2038536876714 676.892755637891 C 571.9167341594522 679.308771238731 573.0669173032103 681.558771238731 573.7598162293563 681.892755637891 C 574.4527151555022 682.226740037051 575.2541210253761 682.275 575.5407181624093 682 C 575.8273152994427 681.725 575.0852350351032 678.35 573.8916509083217 674.5 C 572.6980667815401 670.65 570.4125509763812 664.125 568.8127268968576 660 C 567.2129028173339 655.875 565.1974085310896 650.925 564.3338507052038 649 C 563.4702928793179 647.075 560.5669028146028 640.8875 557.8818727836147 635.25 C 555.1968427526266 629.6125 553 624.775 553 624.5 C 553 624.225 551.4980837982949 621.6375 549.6624084406554 618.75 C 547.8267330830159 615.8625 543.596887579923 610.8 540.2627517671156 607.5 C 534.9060691695419 602.1981606135869 534.3719426026147 601.3254598466033 535.6724621701447 600 C 536.4819387046183 599.175 536.9372830876194 598.05 536.6843385768141 597.5 C 536.4313940660087 596.95 535.9318299531428 594.25 535.5741961037788 591.5 C 535.2165622544147 588.75 534.1535633745066 583.8591673086804 533.2119763706494 580.6314829081787 C 532.2597074139996 577.3671816339796 530.7234192029209 574.3717985595316 529.75 573.8814829081787 C 528.7875 573.3966673086804 527.9901170997791 573.3375 527.9780379995091 573.75 C 527.965958899239 574.1625 527.065958899239 572.5875 525.9780379995091 570.25 C 524.8901170997791 567.9125 523.325 566 522.5 566 Z " class="odd" fill="#000000"></path><path d="M 325 673 L 315 673 L 315 677.5 L 315 682 L 325 682 L 335 682 L 335 677.5 L 335 673 L 325 673 Z " class="odd" fill="#000000"></path><path d="M 640.5 676 C 640.225 676 640 677.35 640 679 C 640 681 640.5 682 641.5 682 C 642.7222222222222 682 642.8148148148148 681.4444444444445 642 679 C 641.45 677.35 640.775 676 640.5 676 Z " class="odd" fill="#000000"></path></g></svg>