<svg id="svg" xmlns="http://www.w3.org/2000/svg" xmlns:xlink="http://www.w3.org/1999/xlink" version="1.1" width="676" height="900" preserveAspectRatio="xMidYMid meet" buffered-rendering="static" style="background: rgb(215, 243, 245);" viewBox="1.28 -0.04 673.44 601.27"><g><path d="M 352.5 -0.0415190589123029 C 351.95 -0.03701690984386974 350.93 0.5366666666666666 350.23333333333335 1.2333333333333334 C 349.53666666666663 1.93 348.9219660589528 4.3 348.8673319828581 6.5 C 348.8126979067634 8.7 348.5951979067634 9.7125 348.38399864952476 8.75 C 348.17279939228615 7.7875 347.55 7 347 7 C 346.45 7 345.775 7.45 345.5 8 C 345.225 8.55 345.7875 9.436316091344665 346.75 9.969591314099254 L 348.5 10.939182628198507 L 346.5 10.995741708841951 C 345.4 11.026849203195844 341.125 12.789999643315904 337 14.913853797997636 C 332.875 17.03770795267937 326.8 19.666891360002182 323.5 20.756483592048333 C 320.2 21.846075824094484 314.35 23.041089423325985 310.5 23.41206936811834 C 305.6583865739192 23.87859962305688 301.95829530434344 23.652387799997175 298.5 22.678427498514488 C 295.75 21.903944525440018 293.05 21.546964394743792 292.5 21.885138319189544 C 291.95 22.223312243635295 290.7125 24.1875 289.75 26.25 C 288.7875 28.3125 285.8625 32.31838428809783 283.25 35.15196508466185 C 280.6375 37.98554588122587 276.25 41.756068704206854 273.5 43.53090469128626 C 270.75 45.305740678365666 265.125 47.90731647003295 261 49.31218422832467 C 256.875 50.71705198661638 251.5875 52.3465291636354 249.25 52.933244621700254 L 245 54 L 243.38496664724548 59.75 C 242.4966983032305 62.9125 240.71008562401505 67.75 239.41471624898895 70.5 C 238.11934687396283 73.25 234.64160038833154 78.2 231.68639072536388 81.5 C 228.7311810623962 84.8 222.98029374161163 89.80318683046903 218.9066411236204 92.61819295659785 C 214.83298850562917 95.43319908272669 209.5875 98.69569908272668 207.25 99.86819295659785 L 203 102 L 203.61152437010773 111.75 C 203.97722024341286 117.58056855787594 203.76594231702086 123.91195781053788 203.08594819592525 127.5 C 202.46054289656564 130.8 200.9253618036561 135.75 199.67443465612627 138.5 C 198.2596444227798 141.61023159852724 194.3007973888471 146.61811786243007 189.20001083030874 151.75 C 184.69000487363894 156.2875 180.97996359201855 160.5625 180.95547464893014 161.25 C 180.93098570584172 161.9375 181.6691751618016 163.175 182.5958956621743 164 C 183.52261616254702 164.825 186.1005608107183 168.2 188.32466154699932 171.5 C 190.54876228328033 174.8 193.4528952207912 179.975 194.77829029702343 183 C 196.1036853732557 186.025 197.81694218297247 192.1 198.58552765194963 196.5 C 199.69009789199598 202.82344645114338 199.74590097006384 205.862199758446 198.85180284778056 211 C 198.22966873651043 214.575 197.0992163388158 219.3 196.33968640845922 221.5 C 195.5801564781026 223.7 194.9570421610775 226.175 194.95498792618122 227 C 194.95275993933424 227.89478041293233 196.67587600609002 229.03299529882247 199.22562647682128 229.8209964867583 C 201.57653191456956 230.54754455447537 205.75 232.25022462058016 208.5 233.60472996699116 C 211.25 234.95923531340213 214.4272188243008 236.8397868943609 215.56048627622403 237.78373348023285 C 216.69375372814724 238.72768006610477 219.3345173285369 241.75 221.42884983264548 244.5 C 223.52318233675405 247.25 226.13595233303457 251.3 227.2350053799355 253.5 L 229.2332836470281 257.5 L 227.43935630928837 265 L 225.64542897154865 272.5 L 226.83736913942653 288.5 C 227.49293623175936 297.3 228.02271471316092 306.1875 228.0146546536522 308.25 C 228.00199180839846 311.49031333858574 227.2184804524981 312.76178839046554 222.25 317.6048287713064 C 219.0875 320.687484595525 212.225 326.07582551404687 207 329.578919701355 C 201.775 333.08201388866314 197.1625 335.9598409415753 196.75 335.97409093004853 C 196.3375 335.9883409185218 193.1875 337.89632806993933 189.75 340.2140623776429 C 186.3125 342.5317966853465 181.5875 346.3567966853465 179.25 348.7140623776429 C 176.9125 351.0713280699393 174.10988290022095 354.9125 173.02196200049102 357.25 C 171.93404110076108 359.5875 171.02368534611384 363.075 170.99894921238604 365 C 170.97421307865827 366.925 172.0893301784373 371.5375 173.47698721189505 375.25 C 174.86464424535276 378.9625 176 383.125 176 384.5 C 176 385.875 175.775 387.675 175.5 388.5 C 175.09786863974753 389.7063940807574 172.99369288517556 389.9932303475343 164.75 389.9654145981634 C 156.2440418951536 389.9367139172794 154.0746239280113 390.2501293669364 152 391.8074049585507 C 150.26142873527493 393.11242923706345 148.96699988530753 395.71182066451 147.75 400.3419903603873 C 146.7875 404.0038956621743 145.99011709977958 408.2375 145.97803799951015 409.75 C 145.96595889924075 411.2625 145.1372741191121 414.3 144.13651626589098 416.5 C 143.13575841266982 418.7 141.45814131289023 421.15304693397303 140.4084782663808 421.95121540882894 C 139.35881521987136 422.7493838836848 137.375 423.3419334182622 136 423.2679921523343 C 134.61233784231126 423.1933699729744 132.06597819196574 421.65780297249114 130.27700930084652 419.81677674350533 C 128.5043644163121 417.9925495345774 126.35752922372848 414.25 125.50626442843847 411.5 C 124.65499963314846 408.75 123.96095469923485 405.15 123.96394235307487 403.5 C 123.9669300069149 401.85 123.63876519949852 399.93869118890035 123.23468722548292 399.2526470864452 C 122.7468958939472 398.42447433824225 121.87392302889259 399.26461380638426 120.6369850041328 401.7526470864452 C 119.44592429819369 404.1484006453391 118.46092771241993 409.2871515043607 117.90605012109057 416 C 117.42869418314432 421.775 117.40403140114643 431.225 117.85124393887305 437 C 118.52101735658525 445.6490005556426 119.22279909530279 448.6899282142298 121.83217882191528 454.25 C 123.57448046986187 457.9625 125 461.45 125 462 C 125 462.55 123.05779086058389 464.6875 120.68397969018642 466.75 C 118.31016851978895 468.8125 114.37266851978895 471.0365055578519 111.93397969018642 471.69223457300427 C 109.49529086058389 472.3479635881566 103.45 473.1201074414111 98.5 473.40810980245874 C 93.35019271617756 473.707737409869 85.75675708149404 475.0158469848467 80.75 476.46587522945447 C 75.9375 477.8596438532545 70.7625 479.7748862331439 69.25 480.72196940698643 C 67.7375 481.669052580829 63.349999999999994 484.92762237524244 59.5 487.9632356167941 C 55.65 490.99884885834575 49.16299124018211 496.6364626252019 45.084424978182454 500.4912662098077 C 41.0058587161828 504.34606979441344 34.182305957951925 511.1 29.92097440433605 515.5 C 25.659642850720175 519.9 20.74504511962303 525.3 18.99964611300905 527.5 C 17.25424710639507 529.7 13.870559380666506 534.65 11.48034005583446 538.5 C 9.090120731002415 542.35 6.237746155865544 547.975 5.141729888863637 551 C 4.045713621861729 554.025 2.628936974620385 558.975 1.9933373394384262 562 C 1.3577377042564676 565.025 1.0992187703083842 568.5125 1.4188508195537963 569.75 C 1.9054967965741647 571.6341176846453 2.2511620051437493 571.7967320470252 3.544525351069865 570.75 C 4.394014294158291 570.0625 5.060718785282859 568.15 5.026090886902239 566.5 C 4.991462988521619 564.85 5.98392658054018 560.3440544425615 7.231565535832374 556.4867876501369 C 8.479204491124568 552.6295208577121 11.524999999999999 545.9355996915351 14 541.6114072808548 C 16.572913971326216 537.11614462706 22.828551543141884 528.9852172470655 28.607738655312403 522.6246196307179 C 34.16699491573422 516.506078833823 42.45879182990151 508.125 47.03395402012859 504 C 51.60911621035567 499.875 55.83563381546509 496.0268397609796 56.42621536481619 495.44853280217694 C 57.01679691416729 494.87022584337427 60.2 492.2130417291494 63.5 489.5436792150105 C 66.8 486.87431670087165 71.3 483.93043204574394 73.5 483.00171331472666 C 75.7 482.0729945837094 80.65 480.5839136446654 84.5 479.69264456129565 C 88.35 478.80137547792583 94.7625 477.6059203720739 98.75 477.0360776594025 C 102.7375 476.46623494673116 108.5875 475.98464670838115 111.75 475.9658815741803 L 117.5 475.9317631483606 L 124 470.614219669062 C 127.57499999999999 467.68957075544773 133.2 463.73782946370227 136.5 461.832572354072 C 139.8 459.92731524444173 146.1 456.63908435572006 150.5 454.5253926013571 C 154.9 452.41170084699417 161.65 449.3713222690792 165.5 447.768995761546 C 169.35 446.16666925401285 174.4125 444.2131480000378 176.75 443.4278374193792 C 179.0875 442.64252683872064 181.3375 442.1728591756405 181.75 442.3841315014233 C 182.1625 442.59540382720616 183.08560052540372 446.30790382720613 183.80133450089716 450.6341315014233 C 184.51706847639056 454.9603591756405 185.5113422326276 460.975 186.01083173697947 464 C 186.5103212413313 467.025 187.65045240581716 474 188.54445654694803 479.5 C 189.43846068807892 485 191.02313206127465 493.775 192.065948487383 499 C 193.10876491349134 504.225 194.90004157488085 511.875 196.04656329047074 516 C 197.19308500606064 520.125 198.95708141038295 525.975 199.96655530007587 529 C 200.9760291897688 532.025 204.8145692621917 542.375 208.49664434990456 552 C 212.25176743445718 561.815948569172 217.6374006002229 573.6713422053067 220.7621245135041 579 C 223.82606351577098 584.225 227.720515092069 590.664165047953 229.41646134972194 593.3092556621177 C 231.45419129545053 596.4874108243623 233.5174758514428 598.4205862715065 235.5 599.0091711276382 C 237.15 599.4990340195097 240.3 600.1976829913572 242.5 600.5617243984104 L 246.5 601.2236178657798 L 244.5 599.6436123047645 C 243.4 598.7746092462061 242.05 598.0523624009654 241.5 598.0386193153408 C 240.95 598.0248762297161 238.925 596.732936210904 237 595.1676414957581 C 235.075 593.6023467806123 231.89855606617783 589.6617796060525 229.9412357026174 586.410825552292 C 227.98391533905698 583.1598714985314 225.12206777074795 577.8 223.58157443970848 574.5 C 222.041081108669 571.2 220.19858452716818 567.15 219.4871375919289 565.5 C 218.77569065668965 563.85 217.0529315593946 559.35 215.6587840423844 555.5 C 214.2646365253742 551.65 212.00152416423666 545.125 210.62964546207874 541 C 209.25776675992083 536.875 206.94417419705474 529.45 205.4883286557096 524.5 C 203.20239510473687 516.7276294043802 203.00951717724647 515.0907901985399 204.07430147354867 512.5 C 204.7524320647053 510.85 207.37563129317547 507.3271952220713 209.90363309237125 504.6715449379362 C 212.43163489156706 502.01589465380107 215.625 499.2426929323589 217 498.5088744458425 C 218.375 497.7750559593261 221.75 496.4138328520715 224.5 495.4839342074989 C 228.83024053205358 494.0196851887972 230.3037113615357 493.95914666272984 235.5 495.031991913551 C 238.8 495.7133222964522 242.98868279725366 496.9973501816355 244.80818399389705 497.8853872139584 C 247.49579697898693 499.19712026679434 248.56255028828687 500.7193129416889 250.49490827392117 506 C 251.80310543129104 509.575 253.99904778297076 515.65 255.3747801665428 519.5 C 256.75051255011476 523.35 258.985997973962 529.65 260.3425255528699 533.5 C 261.6990531317779 537.35 264.05064265970395 543.875 265.56828005937234 548 C 267.0859174590407 552.125 270.05779456244363 559.325 272.1724514002678 564 C 274.28710823809195 568.675 277.86606411183 576.1 280.12568667524124 580.5 C 282.3853092386525 584.9 285.98142078539144 590.8625 288.1170456679945 593.75 C 290.25267055059754 596.6375 292.9 599.45 294 600 C 295.46497184278957 600.7324859213948 296.00861049797965 600.6656074017435 296.0321870834781 599.75 C 296.0498899793911 599.0625 293.97947019761966 595.35 291.4312542350972 591.5 C 288.8830382725747 587.65 284.99583612740827 580.675 282.79302724583846 576 C 280.59021836426865 571.325 276.52874913940866 561.875 273.76754007948296 555 C 271.0063310195572 548.125 266.9730748673377 537.55 264.80474863010625 531.5 C 262.63642239287475 525.45 259.04201589540384 514.875 256.8171786357264 508 C 254.59234137604898 501.125 252.42108830896208 494.15 251.99217181997778 492.5 C 251.56325533099346 490.85 249.5956502981078 483.875 247.619716191343 477 C 245.64378208457822 470.125 243.5131761833271 462.925 242.88503641078492 461 C 242.02233971066 458.35617577435124 242.03960243723543 454.809161852039 242.95560549814292 446.5 C 243.622558268732 440.45 244.8395584000541 432.8 245.6600502344143 429.5 C 246.48054206877453 426.2 248.58018651645136 419.2426682290603 250.32592678480734 414.0392627312451 C 252.0716670531633 408.83585723342986 254.0625 403.9983572334299 254.75 403.2892627312451 C 255.4375 402.5801682290603 257.125 402 258.5 402 C 260.4364677015272 402 261.3623217791541 402.84529844770924 262.60736917890955 405.75 C 263.4914222273098 407.8125 266.4605204893627 414 269.2053653168049 419.5 C 271.95021014424714 425 277.63939401373784 434.67211502118784 281.8479961378954 440.9935889359729 C 286.78754867297283 448.41297703207465 291.3609987296812 453.99597322111833 294.75 456.7435889359729 C 297.6375 459.0846150211878 300.45 461 301 461 C 301.55 461 302.225 459.875 302.5 458.5 C 302.775 457.125 303.3375 455.9847314358957 303.75 455.966069857546 C 304.1625 455.9474082791964 307.9399675045239 458.7599082791964 312.1443722322754 462.216069857546 C 316.34877696002684 465.6722314358957 324.60491177553706 471.425 330.49133848896474 475 C 336.3777652023924 478.575 344.41279769786854 483.5629673197344 348.34696625668937 486.0843718216321 C 352.2811348155102 488.6057763235297 357.21317808013737 492.4307763235297 359.3070624003052 494.5843718216321 C 361.4009467204731 496.7379673197344 364.1009467204731 500.1949858902735 365.3070624003052 502.2666353117188 C 366.5131780801374 504.3382847331642 368.175 506.2691521914361 369 506.55745188565646 C 369.825 506.84575157987683 371.4769328937538 506.2757656896033 372.67096198611966 505.2908165739376 C 373.8649910784855 504.30586745827196 378.58999107848547 500.31480360048795 383.17096198611966 496.42178577886216 C 387.75193289375386 492.5287679572363 395.775 486.1856286457776 401 482.3259206422873 C 406.225 478.46621263879695 411.5125 474.788909038309 412.75 474.15413486342516 C 414.2091091651115 473.40568652698147 415.1757535188641 473.35150703772825 415.5 474 C 415.775 474.55 416.7875 474.9828203287324 417.75 474.96182295273854 C 418.7125 474.94082557674477 423.6877444273798 470.7783255767448 428.80609872751063 465.71182295273854 C 433.9244530276415 460.64532032873234 439.5494530276415 454.3741034700787 441.30609872751063 451.7757854890638 C 443.0627444273798 449.17746750804895 444.8375 447.0399675080489 445.25 447.0257854890638 C 445.6625 447.01160347007874 446.23575346176773 449.5875 446.5238965817061 452.75 C 446.81203970164444 455.9125 447.4827565509536 462.325 448.01437846905975 467 C 448.5460003871659 471.675 449.62686033095514 477.975 450.416289455258 481 C 451.2057185795608 484.025 452.3350017302517 487.7375 452.9258075679043 489.25 C 453.51661340555694 490.7625 454.675 492 455.5 492 C 456.325 492 457.00572606235374 491.6625 457.01272458300826 491.25 C 457.0197231036628 490.8375 455.88702859841123 485.325 454.49562568244914 479 C 453.1042227664871 472.675 452.1984967041334 467.3875 452.48290109944094 467.25 C 452.7673054947484 467.1125 454.0398381262702 468.6875 455.3107513917115 470.75 C 456.5816646571528 472.8125 458.6689631496732 476.75 459.9491924862011 479.5 C 461.2294218227291 482.25 463.4930865858046 487.2 464.9795586263688 490.5 C 466.4660306669331 493.8 468.50763946610704 498.975 469.5164670689776 502 C 470.5252946718482 505.025 471.9440194487947 508.625 472.6691887955253 510 C 473.394358142256 511.375 473.99045085056173 515.3125 473.99383925842693 518.75 C 473.9985164822357 523.4949886443134 475.1032671294072 528.3110249825107 478.58163955556915 538.75 C 481.10154131113217 546.3125 483.7971699068895 556.325 484.57192532391866 561 C 485.5705818016172 567.0260553596936 485.7651096532987 572.4852029975705 485.2402857683495 579.7565858046873 L 484.5 590.0131716093748 L 488 590.0152778999123 C 489.925 590.016436359708 493.8682393222727 590.3509727475987 496.7627540494949 590.7586920952249 C 501.39304562498194 591.4109117722306 502.02397535441895 591.2896900901876 502.0127540494949 589.75 C 502.0057393222727 588.7875 501.325 587.325 500.5 586.5 C 499.3360387779222 585.3360387779222 497.84533497363765 585.168019388961 493.84584026208876 585.75 L 488.6916805241775 586.5 L 489.52620229708305 578.5 C 489.98518927218106 574.1 490.2548430726465 568.7 490.125432964784 566.5 C 489.9960228569215 564.3 489.29329285555605 559.8 488.5638107395274 556.5 C 487.8343286234988 553.2 486.0177797512045 546 484.5270354677623 540.5 C 483.0362911843201 535 481.1742237855022 527.8 480.38910791483363 524.5 C 479.60399204416507 521.2 478.68518425817336 515.575 478.3473128348521 512 C 477.8917473407678 507.1796851437096 478.12579886476595 504.72476070290327 479.2530390727041 502.5 C 480.08905992684396 500.85 482.9616346667246 497.09530597015 485.636538494661 494.15623548922224 C 488.31144232259743 491.21716500829444 492.75 487.6919354073283 495.5 486.32239193151975 L 500.5 483.832312884595 L 505.5 485.3868206076655 C 508.25 486.2417998553544 511.4598620568869 487.96702945632046 512.633026793082 489.220664165368 C 513.806191529277 490.47429887441564 515.4489658440724 492.85 516.2836363815161 494.5 C 517.1183069189598 496.15 518.9818565894162 501.325 520.4248578714194 506 C 521.8678591534224 510.675 523.4518795350641 515.85 523.9449031639565 517.5 C 524.437926792849 519.15 525.5860321121356 524.55 526.496248317927 529.5 C 527.4064645237182 534.45 529.0655687460963 542.1 530.1831465898783 546.5 C 531.3007244336603 550.9 532.5898824592672 556.525 533.0479422023379 559 C 533.5060019454088 561.475 533.9076030265936 566.5375 533.9403890494152 570.25 L 534 577 L 531.5 577 C 530.125 577 527.875 577.45 526.5 578 C 525.125 578.55 523.7268550381162 579.5625 523.3930111958139 580.25 C 523.0591673535114 580.9375 523.062228981918 582.4 523.399814814495 583.5 L 524.0136072373624 585.5 L 525.7568036186813 583.8729785830939 C 526.7155616284066 582.9781168037955 529.3 581.6467588743545 531.5 580.9144054065584 C 533.7 580.1820519387625 536.0825364079815 579.1142115763702 536.7945253510699 578.5414268234647 C 537.682737387689 577.8268731539712 538.0750755081002 574.7536331571215 538.0445253510699 568.75 C 538.0200364079815 563.9375 537.3081421443524 556.9625 536.4625380985608 553.25 C 535.6169340527692 549.5375 533.7915508132596 541.55 532.4061308996506 535.5 C 531.0207109860415 529.45 529.2190143113088 521.575 528.4023605113557 518 C 527.5857067114027 514.425 525.3189069444683 506.325 523.365027695946 500 C 521.4111484474237 493.675 518.735213203445 485.35 517.4185049315489 481.5 C 516.1017966596528 477.65 515.0189796660968 473.7125 515.0122449458689 472.75 C 515.005510225641 471.7875 515.3375 470.9994360041723 515.75 470.9987466759385 C 516.1625 470.9980573477046 520.55 472.5966422586989 525.5 474.5511575892591 C 530.45 476.5056729198193 537.425 478.77136118551266 541 479.586020401911 C 544.575 480.4006796183093 548.625 481.4660943644248 550 481.95360872661206 C 551.375 482.4411230887993 555.2 483.61344645637894 558.5 484.5587717656779 C 561.8 485.50409707497676 566.75 486.94004584127873 569.5 487.74976902412664 C 572.25 488.5594922069746 577.2 490.1271798523253 580.5 491.2335193471283 C 583.8 492.3398588419313 588.525 494.13222108306616 591 495.2165465496503 C 593.475 496.30087201623434 600 499.442516116901 605.5 502.197977884465 C 611 504.953439652029 617.75 508.8193302291351 620.5 510.7888458335897 C 623.25 512.7583614380443 628.65 516.7115797648191 632.5 519.5737754486449 C 636.35 522.4359711324707 642.69927379099 528.090269890818 646.6094973133112 532.1388838005278 C 650.5197208356324 536.1874977102375 655.7480047606846 542.65 658.2279060356494 546.5 C 660.7078073106143 550.35 663.762519793258 555.525 665.0161559970799 558 C 666.2697922009017 560.475 668.3219033504298 565.425 669.5764029960311 569 C 670.8309026416324 572.575 672.3394163679988 575.6125 672.9286557212895 575.75 C 673.5178950745802 575.8875 674.2640703504918 575.4375 674.586823001093 574.75 C 674.9095756516941 574.0625 674.6457654815747 571.7 674.0005781786053 569.5 C 673.3553908756361 567.3 672.163854538457 563.925 671.3527196515408 562 C 670.5415847646245 560.075 668.2680299876434 555.35 666.3003757026938 551.5 C 664.3327214177442 547.65 660.1976874044315 541.3928794404923 657.1114112286655 537.5952876455384 C 654.0251350528995 533.7976958505845 647.9 527.339494163277 643.5 523.2437283404104 C 639.1 519.1479625175439 631.45 513.1207560665653 626.5 509.84993622712454 C 621.55 506.5791163876838 612.325 501.27531491945473 606 498.06371074217105 C 599.675 494.8521065648874 589.325 490.18310695134807 583 487.68815604541703 C 576.675 485.19320513948605 566.55 481.71449003946424 560.5 479.9576780453686 C 554.45 478.20086605127295 548.208894804956 476.4791926752986 546.6308773443467 476.13173720987004 C 545.0528598837374 475.78428174444156 543.5176306539217 475.05 543.2192568336454 474.5 C 542.9208830133691 473.95 542.7862891896336 469.225 542.9201594475667 464 C 543.096565770838 457.11480344234974 542.796997514501 454.1599000383511 541.8317799582679 453.26436232898595 C 540.7536099295213 452.26402627871965 540.0239267419013 452.72461959780816 538 455.6830726390755 C 536.625 457.69296402868235 534.7125 459.8240009806387 533.75 460.41871031008947 C 532.4914180254016 461.19636271754115 531.5085819745984 461.1901020805998 530.25 460.39641541230156 C 529.2875 459.7894438890674 528.05 458.0861773892324 527.5 456.6113787460014 C 526.7383366726401 454.56901503365765 527.0362086993092 451.8528313042647 528.7497951883332 445.21496333369987 C 530.2304016747734 439.4795829275732 530.7738141170997 435.303375315857 530.3392188174341 433 C 529.9760144598564 431.075 528.9636066251064 428.46266298908614 528.0894236291009 427.1948066424136 C 527.2152406330954 425.92695029574105 524.925 424.4227154088645 523 423.85206244935455 C 520.5472997890405 423.1249764056275 518.0786645720165 423.14149183184367 514.75 423.90725580694095 C 512.1375 424.50826511312346 508.65 425 507 425 C 505.00400467095477 425 503.829147768373 424.4143306086097 503.4894877387437 423.25 C 503.20870599505275 422.2875 503.40626049475316 418.575 503.92849773807797 415 C 504.4507349814028 411.425 505.62004534406526 403.775 506.5269652106613 398 C 507.43388507725734 392.225 507.978756503616 384.575 507.7377906025694 381 C 507.47527663424876 377.1053102008615 506.4379803094114 372.7965279455906 505.1498353912424 370.25 C 503.96742592605904 367.9125 497.58315295903043 359.8125 490.96256213117874 352.25 C 481.197253692656 341.0953845001789 478.6629228859921 337.5562238181168 477.536016434683 333.5 C 476.77200712946205 330.75 475.7156653127618 323.55 475.18859017534913 317.5 L 474.2302717436897 306.5 L 479.2472573201305 294.5 C 482.1962142119367 287.4464651308047 484.5189357891652 280.18202899609895 484.8821214482856 276.87666064325674 C 485.35020760497196 272.6165883362676 485.13635476273026 270.848175401561 484 269.5821352921869 C 483.175 268.66298299530723 481.7125 267.9309857058417 480.75 267.95547464893014 C 479.7875 267.9799635920186 478.775 267.55 478.5 267 C 478.225 266.45 479.1889768123868 261.8375 480.6421706941928 256.75 C 482.8839865733793 248.90160590190055 483.3764427010741 244.7725506773827 483.8921706941928 229.5 L 484.5 211.5 L 487.4717100105319 205.5 C 489.39295942910246 201.62092146590044 493.6878368336012 196.1418743456576 499.62174236265014 190 L 508.8000647042364 180.5 L 502.8738758270953 169 L 496.94768694995423 157.5 L 497.00643821052324 132.5 L 497.06518947109225 107.5 L 495.2825947355461 105.77527820700051 C 494.30216763099577 104.82668122085079 492.9375 104.0391812208508 492.25 104.02527820700051 C 491.5625 104.01137519315023 487.7375 100.71569311806358 483.75 96.70154026236351 C 479.15317387009424 92.07398847891072 474.48724740889406 85.95925457575905 471 79.99256340353622 C 467.975 74.81677898688129 464.6 68.84374942814088 463.5 66.71916438411311 C 462.4 64.59457934008533 460.6 61.73949918657319 459.5 60.374541820752796 C 457.96884190531296 58.4745731665904 455.4488166642559 57.436524077922925 448.75 55.9464005778124 C 443.9375 54.87588026001558 437.8625 52.94037374969525 435.25 51.645274999322766 C 432.6375 50.35017624895029 429.02527954508236 47.53767624895029 427.22284343351635 45.395274999322766 C 425.42040732195034 43.25287374969525 421.74125288988 37 419.0469446955822 31.5 C 416.35263650128445 26 413.5523569562021 20.940926841896616 412.8241012620659 20.2576152042147 C 411.7881840488469 19.285629275141957 409.432372287166 19.255493651491822 402 20.119152935161495 C 393.76058853908194 21.07659208450066 391.70383881742197 20.99334552642187 386.5 19.491793350943404 C 383.2 18.5395881899208 376.9 15.512845030521055 372.5 12.765697441166193 C 368.1 10.018549851811333 362.025 6.011251246302323 359 3.8605894289239506 C 355.975 1.7099276115455782 353.05 -0.046021207980736056 352.5 -0.0415190589123029 Z " class="odd" fill="#e8ac20"></path><path d="M 357.5 39.143898770551196 C 359.15 39.09963583975024 364.775 39.68368243663042 370 40.44178009695159 C 375.225 41.199877757272766 382.875 43.04140432445837 387 44.534061357364045 C 391.125 46.02671839026972 396.75 48.38191312086222 399.5 49.76782742534738 C 402.25 51.15374172983254 408.1 54.51758276112786 412.5 57.243029717114766 C 416.9 59.96847667310167 423.425 64.59072927498771 427 67.5147021657504 C 430.575 70.4386750565131 435.30118750953227 74.55653779725854 437.5026389100717 76.66550825629584 C 439.70409031061115 78.77447871533313 443.64159031061115 82.8625 446.2526389100717 85.75 C 448.86368750953227 88.6375 450.7618369962122 91.3375 450.47074888047155 91.75 C 450.1796607647309 92.1625 446.6921607647309 89.31790312897404 442.72074888047155 85.42867361994232 C 438.7493369962122 81.5394441109106 432.8 76.10490278715969 429.5 73.35191512271808 C 426.2 70.59892745827649 421.475 66.97076218001827 419 65.2893256154776 C 416.525 63.60788905093692 410.675 60.23666169954019 406 57.79770927904042 C 401.325 55.358756858540644 395.475 52.64251960596269 393 51.761626495533854 C 390.525 50.88073338510502 386.025 49.47307254356526 383 48.63349129211217 C 379.975 47.79391004065908 373.225 46.663781996611846 368 46.12209563867387 C 361.7342618537007 45.47251384417398 355.9466353786574 45.47561182058449 351 46.13119532732962 C 346.875 46.67788651402825 340.8 47.80315779328762 337.5 48.63179817012821 C 334.2 49.4604385469688 329.475 50.81776085268569 327 51.64806996061019 C 324.525 52.47837906853468 319.35 54.606581413165415 315.5 56.37740850423404 C 311.65 58.14823559530267 304.675 62.08354817955073 300 65.12254758034084 C 295.325 68.16154698113094 288.575 73.06265102189771 285 76.01388989315589 C 281.425 78.96512876441408 275.575 84.34639599444058 272 87.97226151543703 C 268.425 91.59812703643348 262.7277075958321 98.37517681768597 259.3393502129602 103.03237214044256 C 255.9509928300883 107.68956746319915 251.07560405208883 116 248.50515292851696 121.5 C 245.93470180494506 127 243.47552457959637 132.4 243.0403146499643 133.5 C 242.60510472033224 134.6 241.7976827756662 136.625 241.24604366181757 138 C 240.69440454796893 139.375 239.40156351784822 143.65 238.3730635948826 147.5 C 236.8579741671967 153.1714581754868 236.50277299922988 158.10604209510726 236.50153186747258 173.5 C 236.5003092797816 188.6639528515592 236.87519841387015 194.01422913754243 238.35836346313687 200 C 239.38046336786215 204.125 241.32784315736274 211.325 242.68587410647152 216 C 244.0439050555803 220.675 245.61252644519706 225.625 246.17169941673097 227 C 246.73087238826488 228.375 247.00874229776645 230.175 246.78918810451216 231 C 246.55126449999054 231.89402516445227 245.8664687801558 231.0860587170553 245.09407880377086 229 C 244.3813228816174 227.075 243.40381948313257 224.6 242.9218490293601 223.5 C 242.43987857558764 222.4 241.3898591029488 219.475 240.58847242349603 217 C 239.78708574404325 214.525 237.87447467469488 208.225 236.33822560272188 203 L 233.5450454718619 193.5 L 233.5937828191265 173.5 C 233.63557215650033 156.35120560749533 233.93557206949998 152.50207803737663 235.69815517453296 146.5 C 236.82875442901098 142.65 239.89019814038238 134.1 242.5013634220249 127.5 C 245.11252870366744 120.9 249.05288906958273 111.9 251.2577197907255 107.5 C 253.4625505118683 103.1 256.8466460359159 97.025 258.7779320663868 94 C 260.70921809685774 90.975 264.1367549398406 86.400274030744 266.3946806063488 83.83394229054221 C 268.652606272857 81.26761055034042 273.875 76.34859331602557 278 72.90279288095364 C 282.125 69.45699244588171 289.775 63.824899299393266 295 60.387030333201544 C 300.225 56.94916136700982 308.1 52.46535152981035 312.5 50.42300847275827 C 316.9 48.38066541570619 323.65 45.60025467647391 327.5 44.24431794113099 C 331.35 42.88838120578805 339 41.2041930632768 344.5 40.501677624439296 C 350 39.799162185601794 355.85 39.18816170135215 357.5 39.143898770551196 Z " class="even" fill="#e5f0d8"></path><path d="M 363.5 51.65365949764356 C 375.82009516285575 52.08765769315102 379.8399524185721 52.62484642908193 386 54.660419636018474 C 390.125 56.02351616532596 398.225 59.58227274977584 404 62.56876760146265 C 409.775 65.55526245314948 418.325 71.02058742870629 423 74.71393421381113 C 427.675 78.40728099891597 436.11089221392257 85.94506039471499 441.74642714205015 91.46455509336451 C 447.38196207017774 96.98404979201403 452.2194620701777 102.0625 452.49642714205015 102.75 C 452.7733922139226 103.4375 449.5125 100.96196955168361 445.25 97.24882122596357 C 440.9875 93.53567290024353 435.25 88.86487907421608 432.5 86.869279390347 C 429.75 84.87367970647793 424.125 81.55025988262781 420 79.4839020040134 C 415.875 77.417544125399 407.325 73.7109343507124 401 71.24699139359873 L 389.5 66.76709510793752 L 371.5 67.34283587823535 C 358.74584022551596 67.75078531007217 351.3142332393683 68.47178589438451 346 69.81679809585998 C 341.875 70.86081989188973 334.675 73.3049141142269 330 75.24811858994258 C 325.325 77.19132306565825 319.15949420514426 80.06794366844123 316.2988760114316 81.64060881834918 C 313.438257817719 83.21327396825713 308.3089295509414 86.525 304.90036875192584 89 C 301.4918079529103 91.475 294.9235768021182 97.55 290.30429952794344 102.5 C 285.6850222537687 107.45 279.47857255032073 115.1 276.5121890758369 119.5 C 273.545805601353 123.9 268.8628286315762 132 266.1055735874439 137.5 C 263.3483185433116 143 259.94679427808836 151.1 258.54663077583666 155.5 C 257.14646727358496 159.9 255.5291318295421 165.975 254.9525520112971 169 C 254.37597219305204 172.025 253.63464216645417 174.95 253.30515195219067 175.5 C 252.9756617379272 176.05 252.40902380469774 187.3 252.04595654501412 200.5 C 251.68288928533048 213.7 250.9995597290812 225.175 250.5274464200157 226 C 249.90197636864136 227.09298505777193 248.90203767678193 225.4649252888596 246.84230397886014 220 C 245.28758894529005 215.875 243.34866716609105 209.8 242.53358891397346 206.5 C 241.71851066185585 203.2 240.50325242388567 193.3 239.83301505181748 184.5 C 238.7572875176229 170.37604527079498 238.81312570385856 167.2688452910408 240.30923542542916 158 C 241.24139400298378 152.225 243.2813526250029 143.9 244.84247680769386 139.5 C 246.40360099038483 135.1 248.9294072482438 129.025 250.45537960293598 126 C 251.9813519576282 122.975 255.39055923800737 116.9 258.0313957815564 112.5 C 260.6722323251055 108.1 265.79551049661626 101.0125 269.4164583849137 96.75 C 273.03740627321116 92.4875 279.4875 86.03307920953729 283.75 82.40684268786065 C 288.0125 78.780606166184 295.1 73.45726136336788 299.5 70.5771875704915 C 303.9 67.6971137776151 310.425 63.97524153317099 314 62.30636036061566 C 317.575 60.63747918806034 322.075 58.58053773494239 324 57.73537935368687 C 325.925 56.89022097243135 329.75 55.426015054859185 332.5 54.481588425748726 C 335.25 53.53716179663826 339.975 52.395630806760835 343 51.944852892687784 C 346.025 51.494074978614734 355.25 51.363037950844834 363.5 51.65365949764356 Z " class="even" fill="#e5f0d8"></path><path d="M 411 91 C 411.55 91 412.86655979370033 94.0375 413.9256884304452 97.75 C 414.98481706719 101.4625 416.33481706719004 106.1875 416.9256884304452 108.25 C 417.62770347167293 110.70045895363012 417.65345572096805 112 417 112 C 416.45 112 415.8168771008445 110.9875 415.59306022409896 109.75 C 415.3692433473534 108.5125 414.3567433473534 105.30968062181346 413.34306022409896 102.6326236040299 C 412.3293771008445 99.95556658624636 411.05132593143065 97.70556658624636 410.5029465142904 97.6326236040299 C 409.9545670971501 97.55968062181346 406.90833802196295 102.675 403.73354856943 109 C 400.5587591168971 115.325 396.16993318546645 124.8875 393.9806020551396 130.25 C 391.7912709248128 135.6125 390 140.9 390 142 C 390 143.1 389.55 144.225 389 144.5 L 388 145 L 388 144.5 C 388 144.225 388.6418427196324 141.6375 389.4263171547386 138.75 C 390.21079158984486 135.8625 392.01620628824935 130.125 393.43834981785966 126 C 394.86049334746997 121.875 395.99879768666113 117.375 395.9679150160622 116 C 395.93424811533635 114.50103674324997 394.42787494530006 112.0161102394177 392.2058823529412 109.79411764705883 C 389.7791986359761 107.36743393009378 387.5507533931447 106.07300673892746 385.75 106.04411764705883 C 384.2375 106.01985294117647 381.7625 106.61281112661585 380.25 107.36180250359078 C 378.7375 108.11079388056571 376.7125 110.36079388056571 375.75 112.36180250359078 C 374.7875 114.36281112661585 374.225 116.9 374.5 118 C 374.775 119.1 375.7875 120.01296457076965 376.75 120.02881015726591 C 377.7125 120.04465574376216 379.1389324738562 118.80715574376215 379.9198499419027 117.27881015726591 C 381.1881807168621 114.79654049184815 381.3811790720878 114.7134298315218 381.7283914550506 116.5 C 381.95450368226716 117.6634532052865 380.0818863544858 121.84618717885402 377.25137393585095 126.5 C 374.57523393610626 130.9 371.2239925570724 136.975 369.80417087133117 140 C 368.38434918559 143.025 366.89017442872824 147.525 366.48378252274955 150 C 366.07739061677086 152.475 365.38081215007674 155.4 364.9358303745404 156.5 C 364.25371091329185 158.1862070507698 364.11868969846915 158.02931057615473 364.0752551758055 155.5 C 364.0469205920377 153.85 364.6411103370007 150.25 365.39567683127893 147.5 C 366.1502433255572 144.75 367.71990233163325 140.3625 368.8838079558924 137.75 C 370.0477135801516 135.1375 371.00674725124014 132.4375 371.0149938916448 131.75 C 371.02324053204944 131.0625 369.44824053204945 127.9125 367.5149938916448 124.75 C 365.58174725124013 121.5875 364.45 119 365 119 C 365.55 119 367.4625 120.81304033634629 369.25 123.02897852521397 C 371.0375 125.24491671408165 373.0625 127.04491671408165 373.75 127.02897852521397 C 374.4375 127.0130403363463 375.2977654597504 126.2125 375.66170102166757 125.25 C 376.051857011776 124.21815486098365 375.4030319419517 121.85850317489451 374.08064387942767 119.5 L 371.83788571552026 115.5 L 373.41894285776016 112.25 C 374.2885242859921 110.4625 376.4625 107.88754874347465 378.25 106.52788609661033 C 380.272670671081 104.98934077723867 382.82173927729735 104.05532229782867 385 104.05458085851566 C 387.5330283114969 104.05371866293387 389.9504575327546 105.15112485953026 393.75 108.02669476190533 C 396.6375 110.2120126428574 399.225 112 399.5 112 C 399.775 112 402.25 107.275 405 101.5 C 407.75 95.725 410.45 91 411 91 Z " class="even" fill="#e5f0d8"></path><path d="M 433.5 112 C 434.325 112 436.0125 112.52350426704008 437.25 113.16334281564463 C 438.4875 113.80318136424916 440.0481884826583 115.04068136424915 440.71819662812953 115.91334281564463 C 441.38820477360076 116.78600426704008 441.95070477360076 118.2875 441.96819662812953 119.25 C 441.9856884826583 120.2125 441.1 122.35 440 124 C 438.9 125.65 437.6625 127.01296457076965 437.25 127.02881015726591 C 436.8375 127.04465574376216 435.9375 125.91965574376216 435.25 124.52881015726591 L 434 122 L 436.5 122 C 437.875 122 439.27838975385447 121.4375 439.6186438974543 120.75 L 440.23728779490864 119.5 L 439.6186438974543 117.25 C 439.27838975385447 116.0125 437.9875 114.6887603202489 436.75 114.30835626721978 C 435.5125 113.92795221419064 433.7125 113.70295221419065 432.75 113.80835626721978 C 431.7875 113.9137603202489 431.225 113.55 431.5 113 C 431.775 112.45 432.675 112 433.5 112 Z " class="even" fill="#e5f0d8"></path><path d="M 418.61600135047524 114.25 C 418.82720060771385 115.2125 419.5625 116.19192131132321 420.25 116.42649180294046 C 420.9375 116.66106229455772 422.85 116.19710149468438 424.5 115.3954678032219 C 426.15 114.59383411175943 428.175 113.95468513414491 429 113.97513674185629 C 429.825 113.99558834956767 429.15 114.71016912213332 427.5 115.56309401422442 C 425.85 116.41601890631553 423.94809122963414 117.65074657260683 423.2735360658536 118.30693327264957 C 422.401689459344 119.15503907390492 422.30851369680204 120.51198299613479 422.951282460662 123 C 423.4485981415872 124.925 424.3380069119531 128.8625 424.9277463948084 131.75 C 425.5174858776638 134.6375 425.99310925146733 138.0125 425.98468722548296 139.25 C 425.97230471518617 141.06943828249996 425.7838742160732 141.21295885499998 425 140 C 424.4668440519688 139.175 424.0324323844094 137.6 424.0346407387569 136.5 C 424.03684909310437 135.4 422.68255591476566 130.225 421.0251003424486 125 C 419.36764477013145 119.775 418.0611477939374 114.825 418.12177372868393 114 C 418.19761759774565 112.96791377753634 418.3517882067291 113.04589940712573 418.61600135047524 114.25 Z " class="even" fill="#e5f0d8"></path><path d="M 354.25 114.03543541572941 C 354.9375 114.05492489438058 356.625 114.71397895730234 358 115.5 L 360.5 116.9291291685412 L 357.75 116.96456458427059 C 356.04232652174176 116.98656899140957 354.77835230330345 117.66329869565386 354.4152205156432 118.75 C 354.09359179924695 119.7125 353.08109179924696 122.18420705119624 352.1652205156432 124.24268233599165 C 351.24934923203944 126.30115762078704 350.42722992364094 127.87615762078704 350.33828871920207 127.74268233599165 C 350.2493475147632 127.60920705119624 350.8118475147632 124.4625 351.58828871920207 120.75 C 352.43088020929844 116.72120697729655 353.5039272180179 114.01428549637426 354.25 114.03543541572941 Z " class="even" fill="#e5f0d8"></path><path d="M 409.38432678050856 115.21127489136921 C 409.87070650978825 115.37007370111616 410.9091718867104 117.3 411.69202761811323 119.5 C 412.4748833495161 121.7 414.43943629828726 128.7875 416.05770083760467 135.25 C 418.1287994124474 143.52088168512086 418.99940730794293 149.44278519980875 418.99799830559346 155.25 C 418.9966430849074 160.8355532306773 418.43145740656627 164.85270318147326 417.24799830559346 167.68841215956854 C 416.27619478373634 170.01696915795534 414.2788685787368 172.57024394786924 412.75 173.43841215956854 C 411.2375 174.29728547180585 409.1 175 408 175 C 406.9 175 404.6597448924218 174.2125 403.02165531649297 173.25 C 401.3835657405641 172.2875 399.5835657405641 170.4875 399.02165531649297 169.25 C 398.45974489242184 168.0125 398 163.175 398 158.5 C 398 153.825 398.4916944869003 147.8625 399.09265441533404 145.25 C 399.69361434376776 142.6375 402.0561143437678 134.74507370111616 404.34265441533404 127.71127489136921 C 406.6291944869003 120.67747608162229 408.89794705122887 115.05247608162229 409.38432678050856 115.21127489136921 Z " class="even" fill="#e5f0d8"></path><path d="M 468.5496031746032 120 C 468.8824404761905 120.275 468.93046679197994 121.175 468.656328320802 122 C 468.3091628886429 123.04476938351839 468.12550503410995 122.89302584469117 468.05116959064327 121.5 C 467.9924707602339 120.4 468.2167658730159 119.725 468.5496031746032 120 Z " class="even" fill="#e5f0d8"></path><path d="M 470.5496031746032 124 C 470.8824404761905 124.275 470.93046679197994 125.175 470.656328320802 126 C 470.3091628886429 127.04476938351839 470.12550503410995 126.89302584469117 470.05116959064327 125.5 C 469.9924707602339 124.4 470.2167658730159 123.725 470.5496031746032 124 Z " class="even" fill="#e5f0d8"></path><path d="M 325.25 125.97222222222223 C 325.6625 125.9875 325.7163934065414 127.6875 325.3697631256475 129.75 C 325.0231328447537 131.8125 324.3406328447537 133.95 323.8530964589809 134.5 C 323.31875097809524 135.1028063198221 322.9622534035536 133.91122527928843 322.9555555555555 131.5 C 322.94944444444445 129.3 323.2944444444445 127.15 323.72222222222223 126.72222222222223 C 324.15 126.29444444444444 324.8375 125.95694444444445 325.25 125.97222222222223 Z " class="even" fill="#e5f0d8"></path><path d="M 332.5 126.93667530107068 C 333.6 126.93339554853144 336.525 128.71046466812598 339 130.88571778905853 C 341.475 133.06097090999108 343.97608402419627 134.53906068419806 344.55796449821395 134.17036173174068 C 345.13984497223163 133.8016627792833 346.38082438492614 132.375 347.315696526424 131 C 348.25056866792187 129.625 349.0119846437256 129.0625 349.00773202821006 129.75 C 349.0034794126945 130.4375 347.65 133.925 346 137.5 C 344.35 141.075 343 144.675 343 145.5 C 343 146.325 342.55 147.225 342 147.5 C 341.45 147.775 341.0074851196229 147.4375 341.016633599162 146.75 C 341.02578207870107 146.0625 341.58828207870107 143.82275021409802 342.266633599162 141.77277825355117 L 343.5 138.04555650710236 L 341 135.38724480932822 C 339.625 133.92517337555245 336.7 131.42701682114318 334.5 129.83578579952987 C 331.41519735462987 127.60458867913543 330.95759867731493 126.94127411439304 332.5 126.93667530107068 Z " class="even" fill="#e5f0d8"></path><path d="M 452.75 129.0633863004191 L 456 129 L 455.881685211574 132.25 C 455.81661207793974 134.0375 455.41985373273144 136.85 455 138.5 L 454.23662957685195 141.5 L 454.118314788426 138.25 C 454.0532416547917 136.4625 453.55 133.875 453 132.5 C 452.45 131.125 451.4375 130.01497117811758 450.75 130.03326928470574 C 450.0625 130.05156739129393 448.375 131.0045278013868 447 132.1509590849122 L 444.5 134.23537960041287 L 444.982424800461 141.86768980020645 C 445.24775844071456 146.0654604100929 445.4404350878206 153.1 445.4105951273633 157.5 C 445.3757727796593 162.6346693343195 444.80554154670034 166.57449899963018 443.8185101654734 168.5 C 442.97270339689135 170.15 441.9925267497853 172.7375 441.6403398385712 174.25 L 441 177 L 445.25 177.0424484910679 C 447.9020524557456 177.06893687341596 450.3290128409784 176.41095847284066 451.70489376314436 175.2924484910679 C 452.9175853328737 174.30660182098055 455.0823232262673 171.25 456.51542241513005 168.5 L 459.1210573039715 163.5 L 458.46319621096313 167.5 C 458.10137260980855 169.7 457.1401789997604 172.85 456.3272104108561 174.5 C 455.5142418219517 176.15 455.2205414204119 177.81397613913992 455.67454285187864 178.19772475364428 C 456.1285442833454 178.58147336814864 458.6375 180.04397336814864 461.25 181.44772475364428 L 466 184 L 468.0199580166584 181.75 C 469.7058489237666 179.8721121876243 470.036615312766 178.1355886453775 470.0199580166584 171.25 C 470.0089811074963 166.7125 469.477133172746 161.9875 468.8380737172133 160.75 C 468.1990142616806 159.5125 467.6365142616806 155.575 467.5880737172133 152 C 467.539633172746 148.425 467.8375 144.4875 468.25 143.25 C 468.9166666666667 141.25 468.6666666666667 141 466 141 C 464.3333333333333 141 462.1111111111111 141.88888888888889 461 143 C 459.5925925925926 144.40740740740742 459 146.33333333333334 459 149.5 C 459 151.975 458.55 154 458 154 C 457.45 154 456.80226911649584 152.7625 456.56059803665744 151.25 C 456.31892695681904 149.7375 455.8631342127135 147.375 455.5477252719784 146 C 455.0336240149834 143.75881677063188 455.5708657180486 143.20951282746123 460.73712723532094 140.69408472034507 C 465.7013346888371 138.2770357737554 466.9504111694411 138.03450668251787 469.75 138.94408472034507 C 471.5375 139.52483812415528 473.011571388242 140.5625 473.02571419609325 141.25 C 473.0398570039445 141.9375 471.90328561570254 143.625 470.5 145 C 468.72037202963736 146.7437565324316 467.95165314538616 148.55874085459575 467.95875859687465 151 L 467.9689455859357 154.5 L 473.23447279296784 153.71819623010487 C 477.155415797239 153.13603077890573 478.6603177728465 153.2637088014374 479.1278205507401 154.21819623010487 C 479.4731218536472 154.9231883035472 479.58562185364724 156.5125 479.3778205507401 157.75 C 479.17001924783307 158.9875 478.55 160 478 160 C 477.45 160 476.775 159.1 476.5 158 C 476.1521904454161 156.6087617816646 475.1629525502112 155.9977057761573 473.25 155.9924626548124 L 470.5 155.98492530962486 L 471.25 166.4924626548124 L 472 177 L 469.75 181.50317875023237 L 467.5 186.00635750046473 L 471 189.52130310339788 C 472.925 191.4545231850111 475.2875 193.02809274740656 476.25 193.01812435316552 C 477.3467400868435 193.00676566478566 478.213461974095 191.97344870789698 478.5718374067396 190.25 C 478.8863479804463 188.7375 478.90519145882854 183 478.6137118031445 177.5 C 478.3222321474604 172 478.3280342113084 168.4 478.6266052783624 169.5 C 478.9251763454163 170.6 479.80633286703403 173.4125 480.58473088195746 175.75 C 481.3631288968809 178.0875 481.99722766629134 181.2375 481.99383925842517 182.75 C 481.99045085055894 184.2625 481.40207490580826 186.625 480.68633715897914 188 C 479.97059941215 189.375 478.5108717458587 194.21155513653403 477.44249790055403 198.74790030340898 C 476.3741240552493 203.2842454702839 475.05 206.98397363702273 474.5 206.96951845171748 C 473.95 206.95506326641225 471.475 205.1589815747412 469 202.97822580355967 C 466.525 200.7974700323781 464.132951997489 199.34774186563925 463.6843377721977 199.75660765525112 C 463.2357235469064 200.165473444863 463.60434454226885 203.875 464.5034955396697 208 C 465.40264653707055 212.125 466.54580225555304 217.3 467.04384158074186 219.5 C 467.5418809059306 221.7 468.61946593543786 226.425 469.4384749796468 230 C 470.2574840238557 233.575 471.61887630788425 239.9875 472.46379116637695 244.25 C 473.30870602486965 248.5125 474 252.675 474 253.5 C 474 254.61504402588474 473.1659287227503 254.88814728809513 470.75 254.56416037381183 C 468.9625 254.32444857940834 463.45 253.15441717982796 458.5 251.96409059696657 C 450.61392986322676 250.06772717916644 447.8291052051599 249.87979820388048 436 250.4457178219749 C 423.9560404211424 251.02191634984317 422.2474427170819 251.32931018674412 420.15835943158856 253.29578759882017 C 418.87045711896224 254.50810441946908 416.237387006076 258.2 414.30709251406364 261.5 C 412.3767980220513 264.8 409.2284442357321 272 407.31075076668776 277.5 C 404.23627723252883 286.31767848242237 403.75991667929054 289.0370179728509 403.28172358451894 300.5 C 402.9586734794662 308.24397955256296 403.21843370811877 316.9366287540935 403.92420262474604 322 C 404.57583757801945 326.675 405.50943987150544 331.175 405.99887438804825 332 C 406.48830890459107 332.825 407.04572735631933 333.275 407.2375820585555 333 C 407.4294367607917 332.725 407.2828826161586 326.2 406.91190618159305 318.5 C 406.5409297470276 310.8 406.6309660676576 300.9 407.11198689410435 296.5 C 407.59300772055104 292.1 408.69672433347165 286.25 409.5646904783723 283.5 C 410.43265662327303 280.75 411.50464795443344 277.6 411.94689343650657 276.5 C 412.38913891857965 275.4 413.18300868686316 273.375 413.7110484771365 272 C 414.2804946689378 270.5171789547878 416.4672308417119 268.63761298453204 419.08556041154407 267.3804442143421 C 421.51350218519485 266.21468853223024 426.425 264.55780001459533 430 263.6984697307089 C 433.575 262.8391394468225 440.775 261.56682162827065 446 260.87109680059365 C 453.4746023311987 259.87583050033965 457.2055980368853 259.8601182841756 463.5 260.79739964182943 C 469.05735503369846 261.62492945347367 471.8577009599071 262.5247170276778 472.6715201016666 263.7443283576026 C 473.46943223726885 264.94010101878763 473.559581004361 266.6161804900872 472.9541990121337 269 C 472.465336356974 270.925 471.2157789692375 273.625 470.17740481716373 275 C 468.881121569544 276.7165194856954 466.91217896795064 277.7075830876416 463.89472590669664 278.16237476188485 C 461.4776266580135 278.5266808809215 455.9 279.3526137577423 451.5 279.99778115481985 C 447.1 280.6429485518974 438.55 282.31500596621095 432.5 283.7134642977388 C 425.5817213492158 285.31262535873395 421.1289344227986 286.85796268934894 420.5 287.8780579048038 C 419.95 288.77012605716175 418.71425721571836 292.2 417.75390492381854 295.5 C 416.7935526319187 298.8 416.00605263191875 303.1875 416.00390492381854 305.25 C 416.00049597625934 308.52370108636524 416.3492858699988 309.07958351058704 418.75 309.62657746250983 C 420.2625 309.97119506689023 423.975 309.94518942788767 427 309.5687871536153 C 430.025 309.1923848793429 435.875 308.2157542730155 440 307.3984969173322 C 444.125 306.58123956164883 449.075 305.38838727120964 451 304.74771404968953 C 452.925 304.1070408281694 455.0771325289067 303.1142115763674 455.7825167309038 302.5414268234628 C 456.48790093290097 301.96864207055825 457.95566733623053 298.575 459.04421984941405 295 C 460.1327723625976 291.425 461.5806398336909 287.5168199769138 462.26170311851024 286.31515550425286 C 463.3277703205644 284.4341921477899 463.5142457681315 285.2687077571407 463.60242421811097 292.31515550425286 C 463.65875753807205 296.8168199769138 464.061715901919 309.275 464.497887248882 320 C 465.0838806974622 334.40896973123546 464.97421027903454 340.544313901285 464.07782037706244 343.5 C 463.41061225059866 345.7 461.7793858612887 349.75 460.45287284526256 352.5 C 459.12635982923643 355.25 454.9942990234053 361.9656500658057 451.2705154989711 367.42366681290144 C 447.546731974537 372.8816835599972 444.05 377.49233554609106 443.5 377.6695601153321 C 442.95 377.84678468457315 441.64419439817306 375.8561346187675 440.59820977371794 373.24589330243066 C 439.5522251492628 370.6356519860938 436.79713894394513 365.575 434.4757959841231 362 C 432.1544530243011 358.425 428.96025862612805 354.3654559737055 427.3775862104052 352.9787910526789 C 425.7949137946823 351.5921261316523 423.0375 348.7796261316523 421.25 346.7287910526789 C 418.68041184525396 343.780650338683 417.99921740904614 342.1102306638987 417.99626193956226 338.75 C 417.9940781901845 336.267179026398 417.1370237892514 333.0446760959075 415.93507790016685 331 C 414.5397440273765 328.6263442128185 413.54315021774295 327.82181263223384 412.83826407183545 328.5 C 412.1195360530623 329.19150495583085 412.1435194906984 330.57973265459214 412.916007420033 333 C 413.5304185786972 334.925 414.0256669286433 337.9625 414.01655930880213 339.75 C 414.0033430861214 342.34387177482307 413.34387177482307 343.39116494356045 410.75 344.9375573520386 C 408.9625 346.0032138956598 405.8125 348.7032138956598 403.75 350.9375573520386 C 401.6875 353.1719008084174 399.2125 355.0140216747939 398.25 355.03115927731983 C 397.2875 355.0482968798457 392 351.22992846092177 386.5 346.5458961241555 C 381 341.8618637873892 375.9375 338.0228421125953 375.25 338.0147368468357 C 374.5625 338.0066315810761 373.3215205873055 339.0125 372.49226797178994 340.25 L 370.9845359435799 342.5 L 370.99226797178994 340.25 C 370.9965205873055 339.0125 371.675 336.425 372.5 334.5 C 373.785008601787 331.50164659583027 374.5263993289588 330.96416810029785 377.6727003963947 330.75 C 379.6926856144118 330.6125 381.4926856144118 329.9375 381.6727003963947 329.25 C 381.8527151783776 328.5625 380.7625 327.6007760698329 379.25 327.1128357107398 C 377.435191198705 326.52736896152373 375.4797914195945 326.6416179800025 373.5 327.44879353546213 C 371.5459766904872 328.2454632424963 369.8026822063419 330.14234096972456 368.5 332.8892906645467 C 366.8134682940889 336.44565900389 365.6771457280165 337.41177489657827 361.25 339.0533328398243 C 358.3625 340.123999777921 355.55 341 355 341 C 354.45 341 350.9625 342.38569830384574 347.25 344.07932956410167 C 343.5375 345.7729608243576 337.8 349.08528739645254 334.5 351.4400552798682 C 331.2 353.79482316328387 326.8846509306606 357.69662485943815 324.91033540146805 360.11072571576653 C 322.9360198722755 362.5248265720949 320.0110198722755 366.4310918480543 318.41033540146805 368.79131521789844 C 316.8096509306606 371.1515385877426 315.1625 373.0640385877426 314.75 373.04131521789844 C 314.3375 373.0185918480543 312.5723088102247 371.5375 310.82735291161043 369.75 C 309.0823970129962 367.9625 306.241119240485 364.25 304.51340230603006 361.5 C 302.78568537157514 358.75 300.229254728679 354.025 298.8324453218164 351 C 297.4356359149539 347.975 295.8170237255213 343.925 295.2355293452996 342 C 294.6540349650778 340.075 293.91665734775137 332.875 293.59691241790745 326 C 293.2771674880635 319.125 292.6745574500073 313.1814006313591 292.2577790000047 312.79200140302027 L 291.5 312.08400280604053 L 290.4420355017861 312.79200140302027 C 289.8601550277684 313.1814006313591 288.6191756150739 314.625 287.68430347357605 316 L 285.9845359435799 318.5 L 285.9878187861651 315.5 C 285.989624349587 313.85 287.1651471238719 308.675 288.60009161790936 304 C 290.0350361119468 299.325 292.25574578825626 292.575 293.53500200970814 289 C 294.81425823116 285.425 297.2235101143806 278 298.88889508353157 272.5 C 300.55428005268254 267 302.36357564223704 259.8 302.9095519492081 256.5 C 303.45552825617915 253.2 304.35775441201923 246.45 304.91449896218603 241.5 C 305.47124351235277 236.55 306.2301594000846 228 306.60097871270114 222.5 C 307.1048328887763 215.02682405115505 306.9594939391939 212.2473175948845 306.02579442349065 211.5 C 305.18915094608445 210.83036444723865 304.56555573488976 210.84175349873075 304.138196601125 211.53447420443484 C 303.78718847050624 212.10343501687402 302.15 213.611063390563 300.5 214.8847594792993 C 298.85 216.1584555680356 293.4976823774237 220.86794217603992 288.60596083871934 225.35028527486446 C 283.714239300015 229.832628373689 278.089239300015 234.66954956242418 276.10596083871934 236.0989990276093 C 274.1226823774237 237.52844849279444 270.25 239.44287970143947 267.5 240.35329060237603 C 264.75 241.26370150331263 260.925 242.37288219593688 259 242.81813658598548 C 257.075 243.2633909760341 255.36244323649242 244.27395976738904 255.1943183033165 245.06384501121875 C 255.02619337014056 245.85373025504845 258.28869337014055 252.0125 262.4443183033165 258.75 L 270 271 L 268.56111308321977 284.25 C 267.7697252789906 291.5375 266.61594144332855 300.875 265.9971490039707 305 C 265.3783565646129 309.125 264.2103117672868 315.875 263.4014938988017 320 C 262.59267603031657 324.125 261.08438282628856 330.65 260.04973122318387 334.5 C 259.0150796200792 338.35 257.43601588595635 345.775 256.54070070291084 351 C 255.64538551986533 356.225 253.81084665402454 364.1 252.46394766770908 368.5 C 251.11704868139358 372.9 250.01513573808816 378.525 250.01525223814144 381 C 250.0153687381947 383.475 249.3369846437256 386.5125 248.50773202821006 387.75 C 247.3172051796869 389.52663229211703 246.05326458423406 390 242.5 390 C 240.025 390 236.13166824924264 389.2125 233.84815166498367 388.25 C 231.56463508072468 387.2875 228.86463508072467 385.2625 227.84815166498367 383.75 C 226.83166824924265 382.2375 225.98885971494425 380.4375 225.97524381098725 379.75 C 225.96162790703025 379.0625 226.8452868964368 376.475 227.93893045411292 374 C 229.61679424667994 370.20286439996283 229.7587060568127 368.8752316444775 228.84750278418292 365.5 C 228.2535740080453 363.3 228.04491501863873 358.9125 228.38381614105725 355.75 C 228.72271726347577 352.5875 229.99890298287133 347.8625 231.2197844063807 345.25 C 232.46127325366785 342.5934032567925 236.38956416646988 337.6353429117576 240.13320410956746 334 L 246.82683940637347 327.5 L 246.45980766253848 323.5 C 246.25794020342926 321.3 245.5950053539509 314.1 244.98661910814218 307.5 C 244.37823286233342 300.9 243.21660490459416 291.225 242.40522364649937 286 C 241.59384238840457 280.775 240.2234772342303 273.575 239.35996774833433 270 C 238.25874409615403 265.4408438808757 238.00429883672885 261.7084518022686 238.50781564967224 257.5 C 238.90264148130404 254.2 239.79270559236645 250.15 240.48573589647754 248.5 C 241.34896879091818 246.44477345741183 241.89727127678913 245.9723867287059 242.22679608895902 247 C 242.6286069850877 248.25303526218104 243.06650826843338 248.17071368290803 244.88649532707444 246.5 C 246.08477710628424 245.4 247.05052184009648 243.9375 247.03259473554613 243.25 C 247.01466763099575 242.5625 246.2125 241.97983464737348 245.25 241.95518810527443 C 244.037975470482 241.92415203920496 245.03707277280571 240.52221937940323 248.5 237.39479030041736 C 251.25 234.91121804984502 256.65 231.42066397666275 260.5 229.63800347112343 C 264.35 227.8553429655841 269.75 224.85771611823742 272.5 222.97661047701968 C 275.25 221.0955048358019 278.34737005733643 218.86872426161068 279.38304457185876 218.02820920103915 C 280.4187190863811 217.1876941404676 284.4687190863811 213.8063293689237 288.38304457185876 210.5140652642749 C 292.2973700573364 207.2218011596261 295.8375 203.9593011596261 296.25 203.2640652642749 C 296.6625 202.5688293689237 297.5625 201.98499319237692 298.25 201.96665153861537 C 298.9375 201.9483098848538 296.18043136755097 204.9858098848538 292.12318081677995 208.71665153861537 C 288.06593026600893 212.44749319237692 281.92941966477287 217.75 278.48649059181093 220.5 C 275.043561518849 223.25 269.138130151298 227.00512182793494 265.363309775031 228.84471517318875 C 261.58848939876395 230.68430851844255 257.4481796679184 232.70930851844255 256.162621484263 233.34471517318875 C 254.87706330060772 233.98012182793494 252.8520633006077 235.53671393341403 251.66262148426304 236.8038087409201 C 249.8065697388504 238.7810332648588 249.71263758434932 239.23957731669364 251 240.03849596640305 C 251.825 240.5504791329126 253.625 240.96023551150756 255 240.949065696614 C 256.375 240.93789588172046 259.975 240.35833763510507 263 239.66115848191313 C 266.4576374060337 238.86426832694343 270.9137012474147 236.6981775424762 275 233.82796346073246 C 278.575 231.31688535227502 284.65 226.43981514242486 288.5 222.99002966106542 C 292.35 219.540244179706 297.525 214.8568434083255 300 212.58247239133095 C 302.475 210.30810137433642 308.1 205.29900868808812 312.5 201.4511553107792 C 316.9 197.60330193347025 323.425 192.36267842247443 327 189.80532528634402 C 330.575 187.2479721502136 337.325 183.24930165111604 342 180.91939084390498 C 348.417208717696 177.72120390412124 351.9702056110381 176.5862039202689 356.5 176.2873857338813 C 361.64922574003907 175.94770535000157 364.27244637491856 176.52253812991617 375 180.34133616680367 C 381.875 182.78870090821292 392.225 186.49065500229375 398 188.5679008203166 L 408.5 192.34471139853997 L 423.5 188.67762082157077 C 431.75 186.66072100423773 440.3 185.02162700556264 442.5 185.0351897134039 C 445.14100542378236 185.05147116111752 448.19874322027204 186.0828596653278 451.5 188.07092958244988 C 454.25 189.7270238025839 458.525 192.60989545607026 461 194.47731103464182 C 463.475 196.34472661321337 467.1875 199.02627436710733 469.25 200.43630604329505 C 471.3125 201.84633771948276 473.45 202.775 474 202.5 C 474.55 202.225 475 200.875 475 199.5 C 475 198.125 473.768715171957 195.5375 472.26381149323777 193.75 C 470.7589078145186 191.9625 468.1714078145186 189.27684254508213 466.51381149323777 187.78187232240475 C 464.856215171957 186.28690209972737 461.25 183.8508669599464 458.5 182.36846090066925 L 453.5 179.673177156529 L 442.5 180.38347844712914 C 436.45 180.7741441569592 428.575 181.50656177416727 425 182.01107315203595 C 421.425 182.51558452990463 415.8 183.21719828044553 412.5 183.57021481990463 C 408.27064632291666 184.02264869846 405.78606326817845 183.811887697754 404.0807588813823 182.85603153673333 L 401.66151776276456 181.5 L 409.48631610405107 181 L 417.3111144453376 180.5 L 419.9887776300295 175.5 C 421.4614923816101 172.75 423.28254733807927 168.25 424.03556642218314 165.5 C 424.788585506287 162.75 425.70966589442116 156.675 426.08241172914785 152 L 426.76013142865094 143.5 L 426.49037622220436 154 C 426.2731325586861 162.45603129218426 425.70800859532426 165.8626458052105 423.58729771977454 171.5 C 422.13896990698373 175.35 420.9643301784383 179.0625 420.9769872118957 179.75 C 420.9922520239425 180.57914834013533 421.9258736517023 180.8130058080466 423.75 180.4445958939145 C 425.2625 180.1391236355675 428.3 179.41737030754575 430.5 178.8406996094218 C 432.88479671744335 178.21558943308912 435.91330287223707 176.3050186273436 438 174.10923125152857 C 440.08731427195784 171.91279446789375 442.0045306171579 168.52392135644834 442.75 165.7131275360213 C 443.4375 163.12090739120958 443.9996317380035 159.3125 443.9991816400077 157.25 C 443.99873154201185 155.1875 443.2875913841943 150.125 442.4188701781908 146 C 441.55014897218723 141.875 440.4255172341838 137.7125 439.9196885381831 136.75 C 439.4138598421824 135.7875 439.03552631578947 134.2125 439.07894736842104 133.25 C 439.1223684210526 132.2875 439.34736842105264 132.0625 439.57894736842104 132.75 C 439.81052631578945 133.4375 440.5625 134.02003640798145 441.25 134.04452535106986 C 441.9375 134.0690142941583 443.175 133.33376439636908 444 132.410636689316 C 444.825 131.4875089822629 446.4 130.37099640947005 447.5 129.9294976386652 C 448.6 129.48799886786034 450.9625 129.09824876564957 452.75 129.0633863004191 Z " class="even" fill="#e5f0d8"></path><path d="M 322.7611623849232 139 C 322.9122530509208 140.375 322.1621959461792 144.425 321.0943688188307 148 L 319.15286495092425 154.5 L 319.0764324754621 149.75 C 319.01530960308673 145.95143607769225 318.4491685865992 144.45648383623234 316.25 142.28652104074246 L 313.5 139.57304208148494 L 317.25 140.28652104074246 C 320.56905173969517 140.91800732899836 321.08541119189897 140.7414310438171 321.74322604155464 138.75 L 322.4864520831092 136.5 L 322.7611623849232 139 Z " class="even" fill="#e5f0d8"></path><path d="M 308.25 137.983016763661 C 309.7625 137.99235754364744 311 138.45 311 139 C 311 139.55 309.7625 140.1125 308.25 140.25 L 305.5 140.5 L 304.9225989154502 147 C 304.6050283189478 150.575 304.27498000790877 152.15 304.1891582242523 150.5 C 304.1033364405958 148.85 303.5134948090999 145.925 302.87839904315024 144 C 301.8633669757692 140.92339827398024 301.9520919822607 140.3467318527349 303.6118397343482 139.233016763661 C 304.6503278804567 138.53617598367458 306.7375 137.97367598367458 308.25 137.983016763661 Z " class="even" fill="#e5f0d8"></path><path d="M 387.73724191982456 150.5 L 388.10451916165323 155.5 L 387.73724191982456 161 C 387.5352394368188 164.025 387.36996467799594 161.775 387.36996467799594 156 C 387.36996467799594 150.225 387.5352394368188 147.75 387.73724191982456 150.5 Z " class="even" fill="#e5f0d8"></path><path d="M 340.7057330069091 151.5 L 341.13910190615167 153.5 L 340.7057330069091 156 C 340.4673801123257 157.375 340.27236410766653 156.475 340.27236410766653 154 C 340.27236410766653 151.525 340.4673801123257 150.4 340.7057330069091 151.5 Z " class="even" fill="#e5f0d8"></path><path d="M 303.7999038559879 160 L 304.0998077119758 165.5 L 303.7999038559879 171.5 L 303.5 177.5 L 301.42800436130193 173.5 C 299.71738801887966 170.19764489755948 299.58657960058724 169.28198596951265 300.67800436130193 168.25 C 301.4051019625859 167.5625 301.9944852941177 165.7625 301.9877450980392 164.25 C 301.9810049019608 162.7375 302.3185049019608 159.925 302.7377450980392 158 L 303.5 154.5 L 303.7999038559879 160 Z " class="even" fill="#e5f0d8"></path><path d="M 341.83205065830305 159.25 C 342.4744227962364 159.6625 342.9923575436475 161.0125 342.983016763661 162.25 C 342.9736759836745 163.4875 343.5361759836745 165.3022290381931 344.233016763661 166.28273119598464 C 345.33491395143415 167.83317514430956 346.86813452634976 168.02862293378809 356 167.78273119598464 L 366.5 167.5 L 366.2143082964327 163.5 L 365.9286165928654 159.5 L 367.7143082964327 162.9190003666725 C 368.6964387333947 164.79945056834237 371.075 167.31671387816513 373 168.51291883294533 C 374.925 169.70912378772553 378.075 171.4064650767029 380 172.28478836400615 C 381.925 173.16311165130938 384.625 174.00696400946106 386 174.1600158265654 C 387.375 174.31306764366974 389.0625 174.11467618968976 389.75 173.71914592883212 C 390.4375 173.32361566797445 391.7875 173.3970947112118 392.75 173.88243269158176 C 393.7125 174.3677706719517 395.175 175.50318903634206 396 176.40558461244922 C 396.825 177.3079801885564 397.1625 178.2608854773446 396.75 178.5231519208675 C 396.3375 178.78541836439038 393.4125 178.1318961111125 390.25 177.07088024691666 C 387.0875 176.00986438272085 382.7 174.622189417921 380.5 173.98715810291702 C 378.3 173.35212678791308 373.8 172.21103883479293 370.5 171.4514070959834 C 367.2 170.69177535717387 360.9 170.04516297418567 356.5 170.01449068934298 C 352.1 169.98381840450028 346.7 170.58235358748396 344.5 171.3445688737512 C 342.3 172.1067841600184 337.125 174.38643584409547 333 176.41046150503357 C 328.875 178.43448716597166 324.825 179.95358548397903 324 179.78623554504992 C 322.7748059952702 179.53770688824045 322.8664079936936 179.10612402598264 324.5 177.43048529021937 C 325.6 176.30217258899165 328.3 175.01707861584867 330.5 174.57472090545724 C 332.7 174.13236319506578 336.1875 172.69708647345047 338.25 171.38521707964549 L 342 169 L 341.33205065830305 163.75 C 340.83686761589144 159.85792194800814 340.9661935157018 158.69398884971545 341.83205065830305 159.25 Z " class="even" fill="#e5f0d8"></path><path d="M 320.91257061253555 165.5 C 321.4328177827634 166.05 322.14099375740324 167.85 322.48629500062407 169.5 L 323.1141154428438 172.5 L 321.59249313715134 170 C 320.75560086902044 168.625 320.0474248943806 166.825 320.0187687490627 166 C 319.98472142680885 165.01978997705737 320.2944475935477 164.84652665137156 320.91257061253555 165.5 Z " class="even" fill="#e5f0d8"></path><path d="M 296.5 171.0389220715191 C 297.05 171.05338449740097 295.25 173.42082009739093 292.5 176.29989007149675 C 289.75 179.1789600456026 286.8132795703571 182.4267861325591 285.9739546007936 183.5172813758446 C 285.13462963123004 184.60777661913008 281.0889577983711 190.9 276.983572749996 197.5 C 272.87818770162085 204.1 267.37740813126373 211.6375 264.7596181492024 214.25 C 262.14182816714106 216.8625 259.55 219 259 219 C 258.45 219 260.4995822847 216.4125 263.5546272993334 213.25 C 266.60967231396677 210.0875 272.3471723139668 202.1396734095612 276.3046272993334 195.58816313235823 C 280.2620822847 189.03665285515527 286.2 180.82699387429537 289.5 177.34447650822517 C 292.8 173.86195914215494 295.95 171.02445964563722 296.5 171.0389220715191 Z " class="even" fill="#e5f0d8"></path><path d="M 309.00462746290975 183.75 L 312 187 L 314.25 185.49226797178994 C 315.4875 184.6630153562744 317.0625 183.98801535627442 317.75 183.99226797178994 C 318.4375 183.99652058730547 316.1875 186.4392095997995 312.75 189.42046577733225 C 309.3125 192.401721954865 306.275 194.6334790439765 306 194.37992597535782 C 305.725 194.12637290673914 306.7193350795153 192.92466330693964 308.209633510034 191.70946019802557 C 309.6999319405527 190.4942570891115 310.9490033287947 189.05 310.98534770612724 188.5 C 311.0216920834598 187.95 309.90328561570254 186.375 308.5 185 C 307.09671438429746 183.625 305.9622253543649 182.05 305.97891326681656 181.5 C 305.9956011792682 180.95 307.35717256751013 181.9625 309.00462746290975 183.75 Z " class="even" fill="#e5f0d8"></path><path d="M 305 195.63965956735316 C 305.275 195.84955948780794 304.4875 196.91650423443042 303.25 198.01064789318093 C 302.0125 199.1047915519314 301.01278734994435 199.6625 301.02841633320963 199.25 C 301.0440453164749 198.8375 301.83154531647494 197.77055525337752 302.77841633320963 196.87901167417226 C 303.7252873499443 195.98746809496697 304.725 195.4297596468984 305 195.63965956735316 Z " class="even" fill="#e5f0d8"></path><path d="M 392.75 204.99560693752363 C 392.3375 204.99802312188564 391.80521674811496 205.3375 391.5671483291443 205.75 C 391.3290799101736 206.1625 390.1528351104121 209.65 388.95327099634085 213.5 C 387.7537068822696 217.35 385.6984901341547 222.6375 384.38612266719656 225.25 C 383.07375520023845 227.8625 381.9909413197995 230.7875 381.9798695995545 231.75 C 381.9687978793094 232.7125 384.62672179022366 237.55 387.88636717936384 242.5 C 391.14601256850403 247.45 395.4253679325026 253.075 397.3960457660272 255 L 400.9790963724356 258.5 L 403.4895481862178 257.25 C 404.870296683798 256.5625 408.30931593424344 253.1875 411.1318131872076 249.75 C 413.95431044017175 246.3125 417.15866988646707 241.7 418.25261195675273 239.5 L 420.24159753909026 235.5 L 419.05461202760165 228 C 418.4017699962829 223.875 417.4474105499876 218.5875 416.9338132580565 216.25 C 416.42021596612545 213.9125 416 210.65 416 209 C 416 207.35 415.55 206 415 206 C 414.45 206 413.81459027849417 206.3375 413.5879783966536 206.75 C 413.36136651481314 207.1625 412.667959067265 213.125 412.04707295765763 220 C 411.4261868480503 226.875 410.7452257209614 233.4 410.53382600857117 234.5 C 410.32242629618094 235.6 408.09083374372915 238.8625 405.57473144756716 241.75 L 401 247 L 396.5089060088036 241.25 L 392.01781201760724 235.5 L 392.7589060088036 220.24560693752363 C 393.16650770396166 211.85569075316164 393.1625 204.99319075316166 392.75 204.99560693752363 Z " class="odd" fill="#e8ac20"></path><path d="M 404.5 211.28277082867743 C 403.95 211.07452408696872 402.98986038365837 211.48820880163547 402.3663564081297 212.20207019460352 C 401.7428524326011 212.91593158757158 400.68756102554926 216.65 400.021264392459 220.5 C 399.3549677593688 224.35 398.9651073757104 229.3 399.15490798432927 231.5 C 399.46019614653306 235.03862909995644 399.81719249377994 235.52883568125273 402.25 235.75 C 404.6433889065946 235.96758080969042 405.0717498204693 235.57855052597546 405.5532974434597 232.75 C 405.8576110373626 230.9625 405.9701110373625 225.48631528533326 405.8032974434597 220.58070063407393 C 405.6364838495569 215.67508598281458 405.05 211.49101757038616 404.5 211.28277082867743 Z " class="odd" fill="#e8ac20"></path><path d="M 345.5 242.45433227793757 C 335.09682702230236 242.13993713869274 329.7015864888488 242.4360429120844 324.5 243.60687055730955 C 320.65 244.4734689391264 316.2625 245.81644058356594 314.75 246.5912519893974 C 313.2375 247.36606339522882 312 248.45 312 249 C 312 249.600490466365 316.09497271975886 250.00697506876398 322.25 250.01745907963823 C 327.8875 250.02706157343928 336.325 250.66848221159378 341 251.44283827553716 C 345.675 252.2171943394805 351.75 253.35048969956128 354.5 253.96127240905003 C 357.25 254.57205511853874 363.53722532504105 256.2931344803842 368.4716118334246 257.7858932131511 C 375.5202121315871 259.91824738341904 378.2530986551933 261.30379015400183 381.2216118334246 264.25 C 383.29972532504104 266.3125 385.3375 267.75796648742426 385.75 267.46214774983173 C 386.1625 267.1663290122392 385.732932294443 264.57882901223917 384.7954050987622 261.71214774983173 C 383.8578779030814 258.8454664874243 382.0578779030814 254.96637643917035 380.7954050987622 253.09194764260076 C 379.53293229444296 251.21751884603114 377.375 248.85348718309194 376 247.83854394718026 C 374.625 246.82360071126857 370.35 245.29214544160968 366.5 244.4353100146049 C 362.65 243.5784745876001 353.2 242.68703460609981 345.5 242.45433227793757 Z " class="odd" fill="#e8ac20"></path><path d="M 251.25 257.04044011798794 C 250.06039836950558 256.38815783216023 249.09437832302453 256.46821474208963 248.23333333333335 257.29044011798794 C 247.53666666666666 257.9556980530946 246.97416666666666 260.1875 246.98333333333335 262.25 C 246.9925 264.3125 246.51771675969695 269.4875 245.92825946599322 273.75 L 244.85651893198641 281.5 L 248.5408553237355 288.5 C 250.5672403391975 292.35 252.51758362146046 297.525 252.87495150654206 300 C 253.3118126931613 303.02554169531953 254.0121489793858 304.5 255.01235564879977 304.5 C 256.02604048356926 304.5 256.6055836166471 303.22561068497765 256.8314014497846 300.5 C 257.0864920242174 297.4210686966075 256.2861194022862 294.772996193861 253.35555811745044 289 C 250.19391556644263 282.7717902342589 249.55022589555065 280.4825678125929 249.55959208339527 275.5 C 249.5657953948302 272.2 250.15422638974425 268.375 250.8672165165376 267 L 252.16356220161646 264.5 L 253.7369083255646 267 C 254.932517870635 268.8997878579796 255.13444195156552 270.7004242840407 254.57796129164933 274.5 C 254.17520005482444 277.25 253.76789280368408 281.06454621831125 253.67283406689296 282.97676937402497 C 253.54249522484932 285.5986951460073 253.93027769248977 286.52071877277115 255.25 286.72676937402497 C 256.6520013883058 286.9456663551362 257.0030450424418 286.2542886892267 257.01531277451704 283.25 C 257.0237348005015 281.1875 257.4822862209725 278.825 258.0343159311194 278 C 258.90046519907344 276.70555310171267 259.24328261433374 276.7740708022836 260.53598639294125 278.5 C 261.3598754367965 279.6 262.0263240163254 281.2875 262.016983236339 282.25 C 262.0076424563525 283.2125 261.0217082628916 287.2625 259.82601836198126 291.25 L 257.65203672396257 298.5 L 259.07601836198126 301.79347582420917 C 259.85920826289157 303.6048875275242 260.95 304.9076048737156 261.5 304.68840326019006 C 262.05 304.46920164666443 262.36168805910654 302.3121375257703 262.19264013134784 299.89492743598083 C 261.98263477642774 296.89206860444625 262.7181638792197 293.441161472924 264.5147936685354 289 L 267.1443070743751 282.5 L 264.45382925336935 277 C 262.9740664518162 273.975 259.7915973600818 268.4625 257.3816757161818 264.75 C 254.9717540722818 261.0375 252.2125 257.5681980530946 251.25 257.04044011798794 Z " class="odd" fill="#e8ac20"></path><path d="M 317.25 270.36013217320556 L 309.5 269.7202643464111 L 311.56538200050244 272.11013217320556 C 312.7013421007788 273.4245594779425 314.31304060066464 275.625 315.14693422247103 277 C 315.9808278442774 278.375 317.5264059440513 281.9145920564507 318.5815522219686 284.865760125446 C 319.72294419367444 288.05815118211996 321.917654081223 291.5298226524528 324 293.43685677525957 C 326.1836717445102 295.43668614666194 330.13265651097953 297.4518702317878 334.5 298.79505239897674 C 338.35 299.979124903619 345.325 301.6038740734847 350 302.40560610978946 C 354.675 303.2073381460942 361.63403529726224 304.00655805897077 365.46452288280494 304.1816503606263 L 372.4290457656099 304.5 L 373.46452288280494 301.75744774539726 C 374.2559194725585 299.66136424391635 374.0874936143643 297.71669128306235 372.75 293.50744774539726 C 371.6951586891798 290.1877429459522 369.708991005809 286.7600787506346 367.75 284.8786088411701 C 365.9625 283.16184370381364 362.925 281.10770508874 361 280.3138563632286 C 359.075 279.5200076377172 352.1 277.5510566522455 345.5 275.93840972884703 C 338.9 274.32576280544856 331.5875 272.55490142052224 329.25 272.00316220678855 C 326.9125 271.45142299305485 321.5125 270.7120594779425 317.25 270.36013217320556 Z " class="odd" fill="#e8ac20"></path><path d="M 479.75 271.95547464893014 C 480.4375 271.9799635920185 481.18611817257784 272.5625 481.4135959390619 273.25 C 481.6410737055459 273.9375 481.4760944645995 276.075 481.0469754036254 278 C 480.6178563426513 279.925 479.08173817007344 284.0875 477.6333794645635 287.25 C 476.1850207590536 290.4125 474.55 293.225 474 293.5 C 473.41094218190136 293.79452890904935 473.00487742154803 292.25349572691925 473.01186887538654 289.75 C 473.0183967568491 287.4125 473.7014675896521 283.025 474.52980405939326 280 C 475.3581405291344 276.975 476.5902995352105 273.9174635920185 477.2679351840068 273.20547464893014 C 477.945570832803 272.4934857058417 479.0625 271.9309857058417 479.75 271.95547464893014 Z " class="even" fill="#e5f0d8"></path><path d="M 325.25 276.44238499966946 C 326.4875 276.6856967494877 329.1875 277.1356967494877 331.25 277.44238499966946 C 333.3125 277.7490732498513 335.225 278.675 335.5 279.5 C 335.775 280.325 336 284.15 336 288 C 336 292 335.57142857142856 295 335 295 C 334.45 295 332.7625 294.52002440226664 331.25 293.93338756059245 C 329.7375 293.3467507189183 327.4332641732734 291.88425071891834 326.12947594060756 290.68338756059245 C 324.82568770794165 289.4825244022666 322.9131877079417 286.5875 321.87947594060756 284.25 C 320.8457641732734 281.9125 320 279.775 320 279.5 C 320 279.225 320.675 278.325 321.5 277.5 C 322.325 276.675 324.0125 276.19907324985127 325.25 276.44238499966946 Z " class="even" fill="#e5f0d8"></path><path d="M 344.25 279.98333333333335 C 344.9375 279.97416666666663 346.07 280.53666666666663 346.76666666666665 281.23333333333335 C 347.46333333333337 281.93 348.02583333333337 283.2875 348.01666666666665 284.25 C 348.0075 285.2125 347.2125 286.23647651703396 346.25 286.5255033711866 L 344.5 287.0510067423731 L 342.75 286.5255033711866 C 341.7875 286.23647651703396 340.775 285.325 340.5 284.5 C 340.225 283.675 340.675 282.325 341.5 281.5 C 342.325 280.675 343.5625 279.9925 344.25 279.98333333333335 Z " class="even" fill="#e5f0d8"></path><path d="M 362.5 286.01273494017585 C 363.05 286.03019015322684 364.45983201361366 286.8219655606627 365.63296003025266 287.77223584558885 C 366.8060880468916 288.72250613051494 368.2685880468916 290.5125 368.88296003025266 291.75 C 369.4973320136137 292.9875 370 295.35 370 297 L 370 300 L 364.5 300 C 360.76342040629976 300 359.00195154151425 299.5992226349319 359.00608673818795 298.75 C 359.0094344441913 298.0625 359.5719344441913 294.9082245925642 360.25608673818795 291.74049909458705 C 360.9402390321846 288.5727735966099 361.95 285.9952797271249 362.5 286.01273494017585 Z " class="even" fill="#e5f0d8"></path><path d="M 452.648723238752 286.25 C 454.7303550080528 286.392627409171 456.7704342338039 287.2189779569114 457.398723238752 288.17402581832175 C 458.2434178212405 289.45802688820703 458.0340277979374 290.8283994330496 456.5 294.05580391056316 C 455.4 296.37006766121897 453.2625 299.10425604297416 451.75 300.1317780922414 L 449 302 L 449 294 L 449 286 L 452.648723238752 286.25 Z " class="even" fill="#e5f0d8"></path><path d="M 435.75 288.98333333333335 C 436.4375 288.9925 437.225 289.9 437.5 291 C 437.775 292.1 437.55 293.9 437 295 C 436.45 296.1 435.6625 297.0075 435.25 297.01666666666665 C 434.8375 297.02583333333337 433.93 296.46333333333337 433.23333333333335 295.76666666666665 C 432.53666666666663 295.07 431.96666666666664 293.825 431.96666666666664 293 C 431.96666666666664 292.175 432.53666666666663 290.93 433.23333333333335 290.23333333333335 C 433.93 289.53666666666663 435.0625 288.97416666666663 435.75 288.98333333333335 Z " class="even" fill="#e5f0d8"></path><path d="M 426 291 C 426.55 291 427.2395479697833 292.4625 427.53232882174075 294.25 C 427.82510967369814 296.0375 428.1626096736981 299.3 428.28232882174075 301.5 L 428.5 305.5 L 424.25 305.75 C 421.61265040366516 305.9051382115491 419.7773316824501 305.5256910577455 419.41317699891044 304.75 C 419.09042434831116 304.0625 419.2975315673906 301.925 419.87341526353146 300 C 420.44929895967226 298.075 421.8383693101626 295.2625 422.960238264621 293.75 C 424.08210721907943 292.2375 425.45 291 426 291 Z " class="even" fill="#e5f0d8"></path><path d="M 361.25 307.1187942754824 C 359.7375 307.18413112699767 356.25 307.8159325993471 353.5 308.52279754737003 L 348.5 309.80800654377526 L 354 309.8903485885952 C 357.025 309.93563671324614 360.5125 309.7538352408967 361.75 309.48634531670757 C 362.9875 309.21885539251844 364 308.55 364 308 C 364 307.45 362.7625 307.0534574239671 361.25 307.1187942754824 Z " class="odd" fill="#e8ac20"></path><path d="M 428.5 314.05116959064327 C 427.1069741553088 314.12550503410995 426.95523061648163 314.3091628886429 428 314.656328320802 C 428.825 314.93046679197994 429.725 314.8824404761905 430 314.5496031746032 C 430.275 314.2167658730159 429.6 313.9924707602339 428.5 314.05116959064327 Z " class="odd" fill="#e8ac20"></path><path d="M 251.5 322.93551663227163 C 250.95 322.9220045983454 249.9375 323.60598570584165 249.25 324.45547464893014 C 248.23331369967255 325.7117128608831 248.27997643960705 326.093325479869 249.5 326.5 C 250.56054671498057 326.8535155716602 248.582465936081 329.4169930676069 242.74815339992702 335.25 C 236.57456514405973 341.4222067289102 234.04664732411783 344.7592686491453 232.71090748874838 348.5 C 231.5991286921533 351.61352981285336 231.03388434720637 355.5751172058613 231.21275408882136 359 L 231.5 364.5 L 238.5 364.1483538118456 C 244.04036707036096 363.8700325316644 245.81277848492266 364.1399656503321 247 365.44287916291546 C 247.825 366.3482735094888 249.0625 367.0690142941583 249.75 367.04452535106986 C 250.4375 367.0200364079814 251.26614406561237 365.3125 251.59143125691634 363.25 C 251.91671844822034 361.1875 252.58920882773913 357.925 253.08585432251365 356 C 253.58249981728818 354.075 253.99135575167583 349.9125 253.9944230655973 346.75 L 254 341 L 250.5 338.5 C 248.575 337.125 247.225 335.55 247.5 335 C 247.775 334.45 249.6875 333.16488048921843 251.75 332.1441788649298 C 253.8125 331.1234772406412 255.83749999999998 329.5484772406412 256.25 328.6441788649298 C 256.7548168875399 327.5374998553928 256.2644506626197 326.33965387524927 254.75 324.98004198334155 C 253.5125 323.8690650741794 252.05 322.94902866619793 251.5 322.93551663227163 Z " class="odd" fill="#e8ac20"></path><path d="M 363.25 343.03317479202497 C 364.2125 343.01492865641126 366.6875 344.12721914239194 368.75 345.5049314275376 C 370.96654959828396 346.9855460273876 373.931220374935 348.01036554630303 376 348.0110921691125 C 377.925 348.01176829183294 380.625 348.5944081624017 382 349.305847437043 C 383.375 350.01728671168433 387.0875 352.71451437797566 390.25 355.29968669546815 C 393.4125 357.88485901296065 396.7875 359.9801531002958 397.75 359.95589577843515 C 398.7125 359.9316384565745 401.75 357.63925513945867 404.5 354.86171062928884 L 409.5 349.81162970170743 L 414 350.3521799095389 C 417.8896063989278 350.8194082533885 419.34618955785913 351.7477742132979 424.7383566991484 357.19636505868516 C 428.16945288368004 360.66336427640834 432.1955111829365 365.975 433.68515291971823 369 C 435.2875686330275 372.25400894260156 436.84661781418896 377.76689608348863 437.5029644235274 382.5 C 438.34337454801056 388.5604387911395 438.31760651397224 392.1971160577529 437.39668044993334 397.5 C 436.7280696741434 401.35 434.99266008277647 407.65 433.5402146913402 411.5 C 432.087769299904 415.35 429.8489478904027 420.3 428.5650560035597 422.5 C 427.28116411671664 424.7 423.59129801675266 429.2458536910822 420.3653535591952 432.6018970912938 C 415.9507163916578 437.1945719266383 412.39763921225864 439.7042097047689 406 442.74854805553105 C 401.325 444.97316268565 394.35 447.35652958037207 390.5 448.0449189326912 C 386.117402923801 448.82853793600566 379.76085296599854 449.07583039332826 373.5 448.7062795453494 C 367.662535246721 448.36171945723737 360.58622532729527 447.21247210916795 356.5 445.9453483340768 C 352.65 444.7514771832341 347.7 442.85713133519886 345.5 441.7356908939985 C 343.3 440.61425045279816 339.25 437.9941359226293 336.5 435.91321416028984 C 333.75 433.8322923979504 329.859776675976 429.96303303638274 327.85505927994666 427.31486002347276 C 325.8503418839173 424.6666870105627 323.3389963123373 420.925 322.2742913431023 419 C 321.20958637386724 417.075 319.582102711783 413.25 318.65766098291516 410.5 C 317.7332192540473 407.75 316.9774652137288 402.8 316.9782075599852 399.5 C 316.9789499062416 396.2 317.6331015283684 389.675 318.43187783137813 385 C 319.2687408941198 380.1020895292262 321.0741172179114 374.2054792764559 322.69209919115247 371.0855243208475 C 324.2364446360186 368.1075626973137 327.1183593793858 363.83256269731373 329.096354176413 361.5855243208475 C 331.0743489734401 359.3384859443814 335.12434897344014 355.802633055372 338.096354176413 353.7280734563823 C 341.0683593793858 351.6535138573925 347.55 348.4059425138037 352.5 346.51124824840724 C 357.45 344.61655398301076 362.2875 343.05142092763873 363.25 343.03317479202497 Z " class="even" fill="#e5f0d8"></path><path d="M 475.9808333091216 347.5 C 476.7716033634923 348.05 478.6744127093644 351.3125 480.20929852217057 354.75 C 481.9656750171829 358.6835461643017 483.5322893290682 364.7989842905452 484.4361643022655 371.25 C 485.2260546685116 376.8875 486.14253138724035 384.875 486.47277923277386 389 L 487.0732298610166 396.5 L 484.7161866618103 400 C 483.4198129022468 401.925 480.81583618351806 404.2480804808048 478.92957173130196 405.16240106845504 C 477.0433072790859 406.0767216561053 474.6 406.9767216561053 473.5 407.16240106845504 C 471.76060348368514 407.4560102711755 471.5168203863049 406.97879303262965 471.6290879620413 403.5 C 471.700086341164 401.3 472.25844948254263 395.9 472.86989494288264 391.5 C 473.48134040322265 387.1 474.5482508203041 382.8787356554315 475.24080698084134 382.11941256762555 C 475.9333631413786 381.3600894798196 477.5125 380.3475894798196 478.75 379.86941256762555 L 481 379 L 481 372 C 481 367.2296941117928 480.2233744230868 362.69067395564315 478.5618274230355 357.75 C 477.220832505705 353.7625 475.768023159833 349.6 475.3333622099865 348.5 C 474.6958937395977 346.8867533587378 474.82109955073577 346.6933766793689 475.9808333091216 347.5 Z " class="even" fill="#e5f0d8"></path><path d="M 330 376 C 328.9 376 327.775 376.675 327.5 377.5 C 327.18364302946816 378.4490709115955 329.980663658452 381.84646695675656 335.1153737963375 386.75 C 339.57882938432317 391.0125 345.3163293843232 395.97382314692504 347.8653737963375 397.7751625487224 C 350.4144182083519 399.5765019505197 354.075 401.5563105028672 356 402.1747371094946 C 358.25788777351397 402.90010743360875 363.58122588702554 403.0856253298532 371 402.69748587809215 C 377.325 402.3665710941934 388.125 402.616861387037 395 403.25368652885567 C 401.875 403.89051167067436 409.525 404.4141153507867 412 404.41725026243864 C 414.475 404.4203851740906 418.075 403.6670919325854 420 402.743265281316 C 421.925 401.81943863004653 426.3497988762068 398.46177485714026 429.8328863915707 395.2817902304131 C 434.28880676337616 391.21362995084525 436.06711059235073 388.90723205700846 435.8328863915707 387.5 C 435.62943102213904 386.27762879719023 434.72237120280977 385.5 433.5 385.5 C 432.1666666666667 385.5 431.4166666666667 386.25 431.25 387.75 C 431.1125 388.9875 429.0875 391.81840941092935 426.75 394.0409098020652 C 424.4125 396.263410193201 420.7 398.77590245154784 418.5 399.6242259317247 C 415.0686229709917 400.9473703422007 412.58089747290285 401.0119993859778 401 400.07886140777225 C 393.575 399.4805874394215 380.75 398.98869916900793 372.5 398.9857763624087 L 357.5 398.980462168592 L 352.5 396.61610262412046 C 349.75 395.3157048746611 344.8 391.80043028570344 341.5 388.8043813153256 C 338.2 385.80833234494776 334.7125 381.70169015202674 333.75 379.67850977550114 C 332.5946701608811 377.25 331.320376958993 376 330 376 Z " class="odd" fill="#e8ac20"></path><path d="M 370.73493036528737 417.2656973254224 C 367.1785507939524 416.6942239714717 365.97368323877123 416.8170704092582 365.98493036528737 417.75 C 365.9932186643793 418.4375 366.7875 419.27751577726303 367.75 419.6167017272511 C 368.7125 419.9558876772392 372.65 420.85535756978635 376.5 421.6155237106891 C 380.35 422.3756898515919 386.0875 422.9981740743289 389.25 422.998821983438 C 392.4125 422.9994698925471 395.225 422.55 395.5 422 C 395.775 421.45 394.5375 420.5903776047691 392.75 420.08972801059804 C 390.9625 419.58907841642696 386.35 418.92114221286704 382.5 418.60542533602046 C 378.65 418.2897084591739 373.3557186643793 417.6868308544048 370.73493036528737 417.2656973254224 Z " class="odd" fill="#e8ac20"></path><path d="M 456.25 541.0441087125682 C 454.7375 541.0683685044808 448.1 542.8768273254964 441.5 545.062906092603 C 434.9 547.2489848597097 427.925 549.7374353280868 426 550.59279602233 C 424.075 551.4481567165733 420.25 553.3007778124429 417.5 554.7097317909293 C 414.75 556.1186857694157 410.7743695256142 558.8978863803828 408.665265612476 560.885733148634 C 406.5561616993378 562.8735799168853 403.96866169933776 566.1875 402.915265612476 568.25 C 401.8618695256142 570.3125 401.1125 573.2375 401.25 574.75 C 401.3875 576.2625 402.10433794823354 577.5 402.8429732182967 577.5 C 403.58160848835996 577.5 404.79768462790395 575.7 405.5453646395056 573.5 C 406.29304465110715 571.3 408.38870670287366 568.239043305269 410.2023914212088 566.6978740117088 C 412.01607613954394 565.1567047181485 416.65 562.1629204945075 420.5 560.0450201813952 C 424.35 557.927119868283 434.5875 553.450576563014 443.25 550.0971461696865 C 453.87349059125046 545.9845763305028 459 543.5117610086905 459 542.5 C 459 541.5196100090743 458.04738165003033 541.0152795523586 456.25 541.0441087125682 Z " class="odd" fill="#e8ac20"></path><path d="M 286.23667045621085 543.2956627974077 C 280.6327319993338 542.5837658234539 279.97474422072696 542.68423657801 279.98667045621085 544.25 C 279.9940017052949 545.2125 280.9 546.45 282 547 C 283.1 547.55 285.0125 548.005313152682 286.25 548.01180700596 C 287.4875 548.0183008592381 292.1 548.9555681591681 296.5 550.0946232280269 C 300.9 551.2336782968857 306.75 552.748324040546 309.5 553.4605026583831 C 312.25 554.1726812762204 317.425 555.7270754500512 321 556.9147119335628 C 324.575 558.1023484170743 329.47250422381 560.069889520732 331.8833427195778 561.2870254972464 C 334.2941812153456 562.5041614737609 337.5566812153456 564.9625 339.1333427195778 566.75 C 340.71000422381 568.5375 342.225 571.125 342.5 572.5 C 342.775 573.875 343.675 575 344.5 575 C 345.43333333333334 575 346 574.0555555555555 346 572.5 C 346 571.125 345.1 568.2 344 566 C 342.9 563.8 340.0875 560.5929824257786 337.75 558.873294279508 C 335.4125 557.1536061332373 331.25 554.6975210865477 328.5 553.4153275090864 C 325.75 552.1331339316253 319.225 550.0007150488178 314 548.6766188806255 C 308.775 547.3525227124331 301.8 545.7791560179562 298.5 545.1802484484547 C 295.2 544.581340878953 289.6815017052949 543.7332773359818 286.23667045621085 543.2956627974077 Z " class="odd" fill="#e8ac20"></path><path d="M 384.25 563.9554746489301 C 383.2875 563.9309857058417 381.9925749654214 564.4934857058417 381.3723888120476 565.2054746489301 C 380.7522026586738 565.9174635920185 379.88163725663105 567.625 379.4377990297304 569 C 378.78091439818996 571.0350125645446 378.8976469248896 571.3328339849909 380.06541021768277 570.6012336986837 C 380.85443459795727 570.1069122329598 382.52407138824196 568.7569122329597 383.77571419609325 567.6012336986837 C 385.02735700394453 566.4455551644077 386.0398570039445 565.1625 386.02571419609325 564.75 C 386.011571388242 564.3375 385.2125 563.9799635920185 384.25 563.9554746489301 Z " class="odd" fill="#e8ac20"></path></g></svg>